<?xml version="1.0" encoding="UTF-8"?>
<svg version="1.1" xmlns="http://www.w3.org/2000/svg" width="1380" height="1352">
<path d="M0 0 C0.72219727 0.20979492 1.44439453 0.41958984 2.18847656 0.63574219 C29.64350785 8.8140793 52.49573752 24.69328125 75.15332031 41.64648438 C76.73786498 42.80786931 78.36536593 43.91024395 80 45 C80 45.66 80 46.32 80 47 C80.61875 47.309375 81.2375 47.61875 81.875 47.9375 C83.25 48.625 84.625 49.3125 86 50 C86 50.66 86 51.32 86 52 C86.57886963 52.25668457 87.15773926 52.51336914 87.75415039 52.77783203 C90.21065963 54.11463878 91.92004201 55.61764335 93.93359375 57.5546875 C94.66513672 58.25207031 95.39667969 58.94945312 96.15039062 59.66796875 C97.28250977 60.76044922 97.28250977 60.76044922 98.4375 61.875 C104.99593067 68.19039299 104.99593067 68.19039299 112 74 C113.8125 75.625 113.8125 75.625 115 77 C115 77.66 115 78.32 115 79 C115.66 79 116.32 79 117 79 C118.36176922 80.64351457 119.68962066 82.31522656 121 84 C122.65138348 85.68181098 124.31985856 87.34691794 126 89 C131.28391816 94.20746275 136.50902278 99.40164097 141.328125 105.046875 C142.5280358 106.44863995 143.74946998 107.83208872 144.984375 109.203125 C145.62890625 109.91984375 146.2734375 110.6365625 146.9375 111.375 C147.81728516 112.34566406 147.81728516 112.34566406 148.71484375 113.3359375 C150 115 150 115 150 117 C150.66 117 151.32 117 152 117 C153.41706502 118.54888502 154.75809496 120.16761534 156.0625 121.8125 C156.86171875 122.81152344 157.6609375 123.81054688 158.484375 124.83984375 C158.89880859 125.36175293 159.31324219 125.88366211 159.74023438 126.42138672 C161.7393081 128.92642755 163.77773783 131.39892351 165.8125 133.875 C167.21071596 135.58138378 168.60666193 137.28963089 170 139 C170.74636719 139.88945312 171.49273438 140.77890625 172.26171875 141.6953125 C174 144 174 144 174 146 C174.66 146 175.32 146 176 146 C177.31791953 147.57041813 178.5511366 149.21191505 179.75 150.875 C180.55417876 151.97658464 181.36029888 153.07675369 182.16796875 154.17578125 C182.61446777 154.78373535 183.0609668 155.39168945 183.52099609 156.01806641 C186.30476532 159.74844583 189.19196898 163.39876572 192.0625 167.0625 C197.18141401 173.61707439 202.15980087 180.23654294 207 187 C207.59425781 187.80566406 208.18851563 188.61132812 208.80078125 189.44140625 C213.77822104 196.19135048 218.50590436 203.09696813 223.22143555 210.03149414 C226.07787765 214.22323289 228.96727074 218.37030165 232 222.4375 C236.89858541 229.08262747 241.28903509 236.06530051 245.76171875 243 C248.52519178 247.28123121 251.3423083 251.52282559 254.1875 255.75 C259.30869577 263.38724816 264.16594349 271.1788937 269 279 C270.02065829 280.64724389 271.04149944 282.29437449 272.0625 283.94140625 C274.24996503 287.47107381 276.4343763 291.00260911 278.6171875 294.53515625 C280.90520726 298.2360515 283.20296911 301.93065386 285.5078125 305.62109375 C295.69833631 321.95985713 295.69833631 321.95985713 299.66796875 329.52734375 C301.2450116 332.45481626 302.96735712 335.27946344 304.6875 338.125 C308.7107986 345.00555269 312.14344041 351.85298706 311 360 C308.48129744 367.39073833 303.93667556 372.61089342 298.625 378.19921875 C296.03603597 380.96155091 293.63218526 383.80848407 291.25 386.75 C290.52167969 387.64847656 289.79335938 388.54695313 289.04296875 389.47265625 C288.36878906 390.30667969 287.69460938 391.14070313 287 392 C285.05034736 394.4005359 283.08448572 396.71214982 281 399 C280.34 399 279.68 399 279 399 C278.60252563 399.88075195 278.60252563 399.88075195 278.19702148 400.77929688 C276.96209068 403.07032901 275.64260112 404.65555468 273.84765625 406.53125 C273.23599609 407.17707031 272.62433594 407.82289063 271.99414062 408.48828125 C271.03797852 409.48408203 271.03797852 409.48408203 270.0625 410.5 C268.80158608 411.82120177 267.5424139 413.14406844 266.28515625 414.46875 C265.72707275 415.05076172 265.16898926 415.63277344 264.59399414 416.23242188 C261.21339962 419.64238227 261.21339962 419.64238227 260 424 C261.68006144 425.50542523 261.68006144 425.50542523 263.875 427.0625 C268.32299601 430.42119086 272.44918454 434.02302106 276.55859375 437.78515625 C279.51004751 440.4627151 282.54437923 443.0341352 285.6015625 445.58984375 C287 447 287 447 287 449 C287.66 449 288.32 449 289 449 C290.375 450.328125 290.375 450.328125 292 452.25 C292.62261719 452.98605469 293.24523437 453.72210938 293.88671875 454.48046875 C294.58410156 455.31191406 295.28148437 456.14335937 296 457 C296.76957031 457.88300781 297.53914062 458.76601563 298.33203125 459.67578125 C304.93212584 467.35683621 310.55660699 475.4695821 316 484 C316.70125 485.0828125 317.4025 486.165625 318.125 487.28125 C323.00357657 494.98025365 327.15633757 502.92665772 331.09472656 511.13330078 C331.89143765 512.77614139 332.72059265 514.40316408 333.5546875 516.02734375 C340.89515167 530.80746756 345.42722518 547.16701194 348.875 563.25 C349.06586182 564.12116455 349.25672363 564.9923291 349.45336914 565.88989258 C353.46670495 585.91292867 353.2804879 606.27798603 353.20278788 626.60127473 C353.19008914 630.49692698 353.18909523 634.39258403 353.18673706 638.28825378 C353.1805775 645.62931374 353.16424342 652.97031248 353.14403808 660.31134576 C353.12150462 668.68409524 353.11064228 677.05684801 353.10064721 685.42962039 C353.07987071 702.61978817 353.0432657 719.80987187 353 737 C362.57 736.67 372.14 736.34 382 736 C387.47983272 725.72531365 392.84892056 715.41858103 398.01611328 704.98388672 C399.66873083 701.65158642 401.3350886 698.32616991 403 695 C403.66282556 693.67451174 404.3255859 692.34899086 404.98828125 691.0234375 C406.36067708 688.27864583 407.73307292 685.53385417 409.10546875 682.7890625 C409.62391357 681.75144775 409.62391357 681.75144775 410.15283203 680.69287109 C410.83583668 679.32782877 411.52037655 677.96355339 412.20654297 676.60009766 C413.64264899 673.74283763 415.05373608 670.88444498 416.40234375 667.984375 C419.22083085 661.96920125 422.10779922 657.00013666 428.24212646 653.84780884 C431.67644565 652.79205116 434.53350009 652.83533944 438.12597656 652.93505859 C439.57252261 652.96748918 441.01907659 652.99956723 442.46563721 653.03134155 C443.22702248 653.05148693 443.98840775 653.07163231 444.7728653 653.09238815 C448.83112229 653.18845477 452.89006245 653.2139776 456.94921875 653.25 C462.1036301 653.29767954 467.25439353 653.36664558 472.40673828 653.52441406 C476.58289432 653.65042105 480.75353711 653.69727463 484.93151093 653.69234085 C486.51547828 653.70463173 488.09950633 653.74528476 489.68195343 653.81574631 C494.87067486 654.03752565 499.13411647 653.944813 504 652 C507.85590003 648.0139633 509.89806454 642.9549614 512.05727386 637.92746353 C518.00539845 625.76614458 531.91553796 617.79288553 544 613 C561.07080672 607.6251562 578.21329546 609.21063787 594.3125 616.6875 C603.5642689 621.68471395 611.26613722 628.17730712 617 637 C617.42667969 637.58910156 617.85335938 638.17820312 618.29296875 638.78515625 C619.68170319 640.79775294 620.85138765 642.84089956 622 645 C622.46921875 645.86882813 622.9384375 646.73765625 623.421875 647.6328125 C629.58083076 661.43856165 629.69942539 680.87101589 624.875 695.125 C623.97823879 697.11228246 623.02500485 699.07572422 622 701 C621.58878906 701.86625 621.17757813 702.7325 620.75390625 703.625 C614.99888641 714.55441453 604.96795065 723.55246305 594 729 C592.92878906 729.56267578 592.92878906 729.56267578 591.8359375 730.13671875 C578.07354601 736.86777932 562.14837857 738.0534212 547.390625 734.1640625 C525.99678588 726.81917303 514.71987736 713.6531085 504 694 C486.18 694 468.36 694 450 694 C449.34 695.98 448.68 697.96 448 700 C446.92337218 702.36144721 445.82296163 704.6880402 444.67114258 707.01171875 C444.3407196 707.68570709 444.01029663 708.35969543 443.66986084 709.05410767 C442.58272748 711.26756115 441.48935615 713.47784163 440.39453125 715.6875 C440.01896276 716.44678802 439.64339428 717.20607605 439.25644493 717.9883728 C437.26906985 722.00471914 435.27653141 726.01845689 433.2800293 730.03027344 C431.22661745 734.15923799 429.19206188 738.29719985 427.16159534 742.43748474 C425.58941469 745.63427664 424.0029499 748.8238243 422.4126339 752.0116272 C421.65656021 753.53347599 420.90586393 755.0580094 420.16083717 756.58529663 C411.80669471 773.68477199 411.80669471 773.68477199 403.1934948 777.11900139 C399.82265118 778.04892573 397.03754806 778.24631872 393.54592896 778.24050903 C392.26714371 778.24325836 390.98835846 778.24600769 389.67082214 778.24884033 C388.26638699 778.24176342 386.86195279 778.23449382 385.45751953 778.22705078 C383.96896879 778.22648624 382.48041749 778.22680407 380.99186707 778.22793579 C376.96131011 778.22850863 372.93087265 778.21676549 368.90034342 778.20278788 C364.68429072 778.19026903 360.46823516 778.18910911 356.25216675 778.18673706 C348.27312277 778.18052569 340.29413372 778.1641195 332.3151139 778.14403808 C323.22930288 778.12166843 314.1434892 778.11068297 305.05765748 778.10064721 C286.37174053 778.07975297 267.68587469 778.04458364 249 778 C249.62977301 780.05460181 250.26018864 782.10900665 250.89086914 784.16333008 C251.41735802 785.8794323 251.41735802 785.8794323 251.95448303 787.63020325 C252.86255314 790.55699621 253.79433122 793.47391046 254.74609375 796.38671875 C261.72040003 818.05059438 267 841.12776817 267 864 C296.7 864 326.4 864 357 864 C357.99 861.03 358.98 858.06 360 855 C361.9375 851.6015625 361.9375 851.6015625 364 848.625 C364.680625 847.62726562 365.36125 846.62953125 366.0625 845.6015625 C367.61501205 843.51693947 369.00961771 841.66242157 371 840 C371.66 840 372.32 840 373 840 C373.33 839.01 373.66 838.02 374 837 C376.14064851 835.40333497 378.23949892 833.96805488 380.5 832.5625 C381.13639404 832.16216553 381.77278809 831.76183105 382.4284668 831.34936523 C397.45733181 822.04415007 412.85513018 820.16733135 430.31640625 822.4296875 C448.14698111 826.73453568 462.01363731 838.02045597 472 853 C480.23500903 867.24380748 482.26038957 883.77203394 478.375 899.6875 C473.34532676 916.49396911 463.75828418 930.4824264 448.4609375 939.49609375 C433.1967086 947.45901192 414.47545826 950.2741192 397.75 945.3125 C395.8150521 944.58877923 393.89574236 943.82094826 392 943 C391.13632813 942.649375 390.27265625 942.29875 389.3828125 941.9375 C374.08511554 935.07498174 363.3678742 922.24430489 357 907 C357 906.34 357 905.68 357 905 C312.945 905.495 312.945 905.495 268 906 C266.68 915.24 265.36 924.48 264 934 C261.32144236 948.09767176 258.21516724 961.67388679 253.85066223 975.31401062 C252.85092973 978.47069346 251.87685742 981.63481678 250.90454102 984.80004883 C250.36833885 986.54491325 250.36833885 986.54491325 249.82130432 988.32502747 C249.5502739 989.2077684 249.27924347 990.09050934 249 991 C250.08470581 990.99111755 251.16941162 990.98223511 252.2869873 990.9730835 C262.52687306 990.89187295 272.76669316 990.83197474 283.00682831 990.79275131 C288.27096516 990.77190795 293.5348413 990.7436496 298.79882812 990.69824219 C303.88223318 990.65466865 308.965388 990.63083844 314.04896545 990.62049103 C315.9849898 990.61312031 317.92100099 990.59872702 319.85691833 990.57707977 C322.57613341 990.54789272 325.29432448 990.54405036 328.01367188 990.54589844 C328.80777466 990.53151733 329.60187744 990.51713623 330.42004395 990.50231934 C337.40032306 990.55339729 343.01880387 992.78077222 347.98706055 997.75683594 C352.72713397 1003.78684667 355.83552699 1011.04004537 359.20703125 1017.890625 C359.97994894 1019.44325917 360.75370036 1020.99547856 361.52824402 1022.54730225 C363.55398887 1026.61213868 365.56731686 1030.68300617 367.57836914 1034.75512695 C369.22557334 1038.08505371 370.88178477 1041.41045941 372.53844166 1044.73569107 C374.51443347 1048.7024491 376.48624574 1052.67127826 378.45703125 1056.640625 C378.83282633 1057.39712593 379.20862141 1058.15362686 379.59580421 1058.93305206 C380.65572964 1061.06916734 381.71278352 1063.20667609 382.76879883 1065.34472656 C383.08305313 1065.97749512 383.39730743 1066.61026367 383.72108459 1067.26220703 C384.98213489 1069.82207104 386.09596192 1072.28788575 387 1075 C404.82 1075 422.64 1075 441 1075 C442.98 1071.04 444.96 1067.08 447 1063 C453.46158257 1054.12901376 453.46158257 1054.12901376 457 1051 C457.66 1051 458.32 1051 459 1051 C459.34611328 1050.11634766 459.34611328 1050.11634766 459.69921875 1049.21484375 C464.73118842 1040.6468954 478.63202664 1036.81942096 487.625 1034.25 C504.44516303 1030.36842392 521.50007929 1034.08062357 536.13818359 1042.79492188 C550.19422272 1051.89282499 560.00057477 1066.42567813 563.609375 1082.7578125 C566.02038178 1102.76916874 563.17614522 1119.94197046 550.55859375 1136.1328125 C540.06863709 1148.63392827 525.29521874 1156.94231294 509 1159 C488.50777399 1160.14703526 472.0113715 1154.72425021 456.42578125 1141.33203125 C454.32486463 1139.31230947 452.56846472 1137.44974256 451 1135 C451 1134.34 451 1133.68 451 1133 C450.34 1133 449.68 1133 449 1133 C447.82845707 1130.71070947 446.66261926 1128.41881638 445.5 1126.125 C445.16613281 1125.47402344 444.83226562 1124.82304688 444.48828125 1124.15234375 C442 1119.2265625 442 1119.2265625 442 1117 C441.16807632 1117.00444122 440.33615265 1117.00888245 439.47901917 1117.01345825 C431.60869842 1117.05366346 423.73841257 1117.08404943 415.86801243 1117.10362434 C411.82252658 1117.11402656 407.77712615 1117.12812006 403.73168945 1117.15087891 C399.82187507 1117.17273515 395.91214245 1117.18459537 392.00227165 1117.18975449 C390.51646578 1117.19342743 389.03066398 1117.20059931 387.54489326 1117.21146011 C366.77147699 1117.35716347 366.77147699 1117.35716347 358.77734375 1110.81542969 C355.69452914 1107.66655476 353.88373666 1104.07267772 352 1100.125 C351.57976562 1099.28565918 351.15953125 1098.44631836 350.7265625 1097.58154297 C349.87179247 1095.86973647 349.0253266 1094.15375649 348.1875 1092.43359375 C347.1252186 1090.25661575 346.03966805 1088.09447732 344.9375 1085.9375 C340.72361063 1077.6667279 336.76019188 1069.2826301 332.80102539 1060.88769531 C329.64264426 1054.23731416 326.29001355 1047.71150137 322.77954102 1041.24047852 C321.30335571 1038.51320839 319.98314145 1035.94942435 319 1033 C288.97 1032.67 258.94 1032.34 228 1032 C227.34 1033.65 226.68 1035.3 226 1037 C225.24058708 1038.31178727 224.44024773 1039.60070416 223.6015625 1040.86328125 C223.1276709 1041.57798584 222.6537793 1042.29269043 222.16552734 1043.02905273 C221.65715332 1043.78259033 221.1487793 1044.53612793 220.625 1045.3125 C220.09986816 1046.09633057 219.57473633 1046.88016113 219.03369141 1047.68774414 C214.3760593 1054.5745342 209.44476307 1061.23466515 204.3984375 1067.83984375 C202.87308201 1069.84963625 201.39955765 1071.90066352 200 1074 C199.34 1074 198.68 1074 198 1074 C197.77183594 1074.54527344 197.54367187 1075.09054687 197.30859375 1075.65234375 C195.62430366 1078.67401044 193.41346956 1081.05621236 191.0625 1083.5625 C190.58176025 1084.07973633 190.10102051 1084.59697266 189.60571289 1085.12988281 C178.71368187 1096.77680707 178.71368187 1096.77680707 174 1101 C173.34 1101 172.68 1101 172 1101 C171.67 1101.99 171.34 1102.98 171 1104 C170.34 1104 169.68 1104 169 1104 C169 1104.66 169 1105.32 169 1106 C165.58534384 1109.2815159 161.73542122 1112.09331363 158 1115 C156.92999756 1115.83966309 156.92999756 1115.83966309 155.83837891 1116.69628906 C143.76092866 1126.1313997 131.37282954 1134.51324976 118 1142 C117.22333984 1142.43650879 116.44667969 1142.87301758 115.64648438 1143.32275391 C47.13454029 1181.46029987 -35.01205205 1190.54075246 -110.4375 1169.1875 C-127.34002146 1164.23822055 -143.40618626 1158.18955685 -159 1150 C-161.35321681 1148.85221719 -163.70739683 1147.70640725 -166.0625 1146.5625 C-172.97432074 1143.10272828 -179.50424516 1139.18219832 -186 1135 C-186.96292969 1134.38511719 -187.92585938 1133.77023437 -188.91796875 1133.13671875 C-207.73545706 1120.87106848 -224.52944874 1106.61739793 -240.4375 1090.8125 C-240.91464447 1090.3407132 -241.39178894 1089.86892639 -241.88339233 1089.38284302 C-243.23935032 1088.03848819 -244.58666987 1086.68543732 -245.93359375 1085.33203125 C-246.71790771 1084.54546143 -247.50222168 1083.7588916 -248.31030273 1082.94848633 C-250 1081 -250 1081 -250 1079 C-250.66 1079 -251.32 1079 -252 1079 C-253.24584961 1077.67749023 -253.24584961 1077.67749023 -254.65234375 1075.80859375 C-255.17626709 1075.11830078 -255.70019043 1074.42800781 -256.23999023 1073.71679688 C-256.80016846 1072.96462891 -257.36034668 1072.21246094 -257.9375 1071.4375 C-258.51508057 1070.67115234 -259.09266113 1069.90480469 -259.68774414 1069.11523438 C-261.46636912 1066.74926086 -263.23459919 1064.3758526 -265 1062 C-265.52464844 1061.29633301 -266.04929687 1060.59266602 -266.58984375 1059.86767578 C-280.97993701 1040.53916415 -280.97993701 1040.53916415 -283.03852844 1035.41487122 C-284.88986294 1032.58666481 -284.88986294 1032.58666481 -288.7775116 1032.39872742 C-290.38574628 1032.3842095 -291.99437108 1032.39758089 -293.60229492 1032.43237305 C-294.48055435 1032.43164291 -295.35881378 1032.43091278 -296.26368713 1032.43016052 C-299.16990687 1032.43364714 -302.07452866 1032.47255858 -304.98046875 1032.51171875 C-306.99399439 1032.52104306 -309.00753136 1032.52816098 -311.02107239 1032.53315735 C-316.32322455 1032.55225713 -321.62469291 1032.60138393 -326.92657471 1032.65667725 C-332.33572132 1032.70780531 -337.74497833 1032.73065763 -343.15429688 1032.75585938 C-353.76983185 1032.80949951 -364.38485909 1032.8948486 -375 1033 C-375.53109375 1034.0621875 -376.0621875 1035.124375 -376.609375 1036.21875 C-402 1087 -402 1087 -403.43359375 1089.84375 C-404.63846203 1092.27151452 -405.81302821 1094.70697333 -406.97265625 1097.15625 C-407.31876953 1097.87554688 -407.66488281 1098.59484375 -408.02148438 1099.3359375 C-408.69816567 1100.74262207 -409.36539455 1102.15390676 -410.02148438 1103.5703125 C-413.12049841 1109.95924493 -417.43378488 1113.24218965 -424 1116 C-428.71806299 1116.83322895 -433.25110977 1117.12243741 -438.03686523 1117.11352539 C-439.03326271 1117.11374443 -439.03326271 1117.11374443 -440.04978943 1117.1139679 C-442.21942549 1117.11327785 -444.38897291 1117.10552854 -446.55859375 1117.09765625 C-448.07316542 1117.09578884 -449.58773769 1117.09436646 -451.10231018 1117.09336853 C-455.06918027 1117.0895688 -459.03601316 1117.07976051 -463.00286865 1117.06866455 C-467.05854794 1117.05839546 -471.1142333 1117.05385918 -475.16992188 1117.04882812 C-483.11329823 1117.03813573 -491.05664447 1117.02109021 -499 1117 C-499.29189209 1118.08877441 -499.58378418 1119.17754883 -499.88452148 1120.29931641 C-503.5594155 1132.49105277 -514.91661228 1144.01436374 -525.48828125 1150.65625 C-540.77743914 1158.83583058 -557.67149686 1161.58064673 -574.57421875 1157.1640625 C-585.97868559 1153.28888449 -595.64906689 1147.78287792 -604 1139 C-604.56976562 1138.42636719 -605.13953125 1137.85273437 -605.7265625 1137.26171875 C-616.26910893 1125.93523938 -620.71619322 1111.16955726 -620.5 1096 C-620.51546875 1094.91460938 -620.5309375 1093.82921875 -620.546875 1092.7109375 C-620.46776937 1076.13830753 -612.90003737 1062.64170715 -601.890625 1050.71484375 C-590.06515317 1039.14731006 -574.54367098 1033.29271043 -558.125 1032.5625 C-540.67275936 1033.1194864 -523.9787323 1040.31172607 -512 1053 C-505.72416501 1059.8381858 -502.26377424 1066.47245153 -498 1075 C-479.85 1075.33 -461.7 1075.66 -443 1076 C-442.67 1074.68 -442.34 1073.36 -442 1072 C-440.84977934 1069.55613965 -439.66875528 1067.15222311 -438.4375 1064.75 C-437.70692496 1063.30734549 -436.97645922 1061.86463562 -436.24609375 1060.421875 C-435.87210449 1059.68646484 -435.49811523 1058.95105469 -435.11279297 1058.19335938 C-433.39289378 1054.80336941 -431.69696783 1051.40150954 -430 1048 C-429.33346374 1046.66660147 -428.66679668 1045.33326832 -428 1044 C-427.67 1043.34 -427.34 1042.68 -427 1042 C-423.29817708 1034.59635417 -419.59635417 1027.19270833 -415.89453125 1019.7890625 C-415.37644897 1018.75144775 -415.37644897 1018.75144775 -414.84790039 1017.69287109 C-414.16401822 1016.3270418 -413.47706175 1014.96274701 -412.78686523 1013.60009766 C-411.34735608 1010.75089901 -409.96493469 1007.9184626 -408.703125 1004.984375 C-405.86385771 998.48906489 -402.33155744 995.21320612 -396 992 C-392.16915269 990.7230509 -388.57197145 990.86880691 -384.58129883 990.88647461 C-383.29317039 990.88625557 -383.29317039 990.88625557 -381.97901917 990.8860321 C-379.1383309 990.88672921 -376.29770807 990.89451217 -373.45703125 990.90234375 C-371.48833756 990.90420865 -369.51964341 990.90563221 -367.5509491 990.90663147 C-362.36746949 990.91045099 -357.18401786 990.92027648 -352.00054932 990.93133545 C-346.7119586 990.9415617 -341.42336337 990.9461317 -336.13476562 990.95117188 C-325.75649812 990.96189923 -315.37825138 990.9789689 -305 991 C-305.26052658 990.19794632 -305.52105316 989.39589264 -305.78947449 988.5695343 C-306.7676733 985.55405229 -307.74364678 982.53786116 -308.71818542 979.52119446 C-309.13802935 978.22308108 -309.55872382 976.92524244 -309.98033142 975.62770081 C-314.39869906 962.02589219 -317.613113 948.5621746 -320.125 934.5 C-320.28395752 933.61078857 -320.44291504 932.72157715 -320.60668945 931.80541992 C-322.07552543 923.21439246 -322.97698335 914.69564155 -324 906 C-353.37 906 -382.74 906 -413 906 C-415.31 910.62 -417.62 915.24 -420 920 C-428.30863879 933.42164727 -443.03121882 942.36229071 -458.17578125 946.078125 C-477.27947973 950.15628762 -494.53947722 946.03865705 -510.71875 935.76953125 C-511.4715625 935.18558594 -512.224375 934.60164062 -513 934 C-513 933.34 -513 932.68 -513 932 C-513.5775 931.7525 -514.155 931.505 -514.75 931.25 C-517.32939979 929.81700012 -519.06121592 928.21575324 -521 926 C-521 925.34 -521 924.68 -521 924 C-521.66 924 -522.32 924 -523 924 C-533.17766785 906.80251512 -533.17766785 906.80251512 -535 898 C-535.17917969 897.236875 -535.35835937 896.47375 -535.54296875 895.6875 C-538.38362663 878.98346052 -534.40712094 861.97578006 -525 848 C-514.5442506 834.48660287 -500.09186192 824.66672864 -483 822 C-465.27934852 820.50148963 -447.82852673 823.02445242 -433.65625 834.62109375 C-423.99539613 843.01217654 -418.84317592 851.31364817 -413 863 C-383.63 863 -354.26 863 -324 863 C-323.01 855.08 -322.02 847.16 -321 839 C-320.33252489 834.85599374 -319.65637328 830.78823167 -318.8125 826.6875 C-318.50820068 825.18316406 -318.50820068 825.18316406 -318.19775391 823.6484375 C-315.23055707 809.62718983 -310.97406127 795.89187794 -306.43777466 782.30603027 C-306.16832094 781.49872215 -305.89886723 780.69141403 -305.62124825 779.85964203 C-305.41623632 779.24596016 -305.2112244 778.63227829 -305 778 C-306.16398945 778.00553076 -306.16398945 778.00553076 -307.35149384 778.01117325 C-326.24779532 778.09957542 -345.14405544 778.16573449 -364.04051971 778.20724869 C-373.17878148 778.22785914 -382.31690506 778.25595068 -391.45507812 778.30175781 C-399.42148066 778.34167209 -407.3877831 778.36744384 -415.35428286 778.37635398 C-419.57110773 778.38156098 -423.78764631 778.39376749 -428.00437927 778.42292023 C-431.97706539 778.45016203 -435.94934849 778.45842743 -439.92211914 778.45243073 C-441.37653293 778.45352706 -442.83096083 778.46142891 -444.28529358 778.4768219 C-452.25689502 778.55702429 -458.26289577 778.49615585 -465 774 C-471.0152454 767.92602814 -474.29838646 759.73692967 -477.96777344 752.12890625 C-479.61271176 748.73631821 -481.30790897 745.36924451 -483 742 C-483.6669273 740.66679702 -484.33359353 739.3334634 -485 738 C-485.33 737.34 -485.66 736.68 -486 736 C-489 730 -489 730 -490.00073242 727.99804688 C-490.66443644 726.67096315 -491.32865791 725.34413807 -491.9934082 724.01757812 C-493.70983845 720.59061457 -495.41578664 717.15898959 -497.10546875 713.71875 C-497.45416016 713.01234375 -497.80285156 712.3059375 -498.16210938 711.578125 C-498.81917436 710.2464733 -499.47311274 708.91327154 -500.12304688 707.578125 C-500.71723331 706.37713671 -501.32977339 705.18497786 -501.96398926 704.00463867 C-503 702 -503 702 -503.84472656 699.91430664 C-504.99596238 697.48727784 -506.03327115 695.8447636 -508 694 C-512.17104132 692.86490437 -516.22407952 693.06809364 -520.51953125 693.21875 C-521.73323898 693.23006958 -522.94694672 693.24138916 -524.19743347 693.25305176 C-528.07073367 693.29780511 -531.94032046 693.39818269 -535.8125 693.5 C-538.43939964 693.54012757 -541.06635734 693.57662957 -543.69335938 693.609375 C-550.13017138 693.69753807 -556.56482046 693.83137139 -563 694 C-563.14695312 694.78157471 -563.29390625 695.56314941 -563.4453125 696.3684082 C-565.29445698 705.14126397 -571.91335632 711.81341144 -578 718 C-578.71285156 718.72574219 -579.42570312 719.45148437 -580.16015625 720.19921875 C-591.93044849 731.414107 -607.68340208 736.39327797 -623.72265625 736.21484375 C-641.08357967 735.07676176 -656.45267672 727.27856479 -668.3125 714.6875 C-678.79161507 702.17805639 -683.17549011 689.26874307 -683.1875 673.1875 C-683.19974609 672.33607422 -683.21199219 671.48464844 -683.22460938 670.60742188 C-683.25398041 657.75269801 -679.35967099 644.94123036 -671 635 C-670.34 635 -669.68 635 -669 635 C-668.85498047 634.1028125 -668.85498047 634.1028125 -668.70703125 633.1875 C-667.8517085 630.54119755 -666.85199529 629.70564083 -664.6875 628 C-662.71594865 626.42618027 -660.93706794 624.93123317 -659.23046875 623.06640625 C-648.49385855 613.1195292 -631.60349103 609.25494179 -617.41796875 609.65234375 C-603.38554316 611.0796419 -588.28687962 615.95516461 -578 626 C-578 626.66 -578 627.32 -578 628 C-577.34 628 -576.68 628 -576 628 C-574.29481463 629.89833911 -572.73711317 631.79275383 -571.1875 633.8125 C-570.76146484 634.34037109 -570.33542969 634.86824219 -569.89648438 635.41210938 C-567.13454619 638.98466179 -565.17358919 642.61563696 -563.3371582 646.74487305 C-562.89660599 647.730457 -562.45605377 648.71604095 -562.00215149 649.73149109 C-561.6714415 650.48009903 -561.34073151 651.22870697 -561 652 C-559.6393618 651.99880661 -559.6393618 651.99880661 -558.25123596 651.99758911 C-549.67424043 651.9953751 -541.09790962 652.02193808 -532.52110386 652.0802784 C-528.11231527 652.10926716 -523.70405574 652.12739174 -519.29516602 652.12011719 C-515.03481232 652.11349695 -510.77550159 652.13616023 -506.51536369 652.17855453 C-504.89563653 652.18963816 -503.27580298 652.19042891 -501.6560688 652.18042374 C-486.37097487 652.09816091 -486.37097487 652.09816091 -479.61595154 657.38200378 C-476.95777812 660.04354061 -475.17142016 662.83748077 -473.5 666.1875 C-473.13600098 666.87239502 -472.77200195 667.55729004 -472.39697266 668.26293945 C-469.15761404 674.44660153 -466.18883584 680.77339161 -463.25415039 687.10620117 C-460.4876239 693.06775006 -457.46136014 698.81855902 -454.21484375 704.53125 C-453 707 -453 707 -453 710 C-452.34 710 -451.68 710 -451 710 C-450.48050781 711.05058594 -449.96101562 712.10117187 -449.42578125 713.18359375 C-444.35503761 723.41592996 -444.35503761 723.41592996 -438.8125 733.3984375 C-438 735 -438 735 -438 737 C-428.1 737 -418.2 737 -408 737 C-408.02094727 732.5462085 -408.04189453 728.09241699 -408.06347656 723.50366211 C-408.13005291 708.71175199 -408.17426193 693.91983559 -408.20724869 679.12781429 C-408.22776528 670.16822033 -408.25567381 661.20876955 -408.30175781 652.24926758 C-408.34196323 644.42884781 -408.36751172 636.60853188 -408.37635398 628.78801161 C-408.38151251 624.65733529 -408.39340091 620.52695567 -408.42292023 616.39637566 C-408.54770494 598.21637039 -408.10223687 580.82335088 -404 563 C-403.80091286 562.10762068 -403.60182571 561.21524136 -403.39670563 560.29582024 C-395.33627043 524.30085075 -379.59741591 491.40270788 -356 463 C-355.16726563 461.98164063 -354.33453125 460.96328125 -353.4765625 459.9140625 C-342.54174331 446.65889413 -330.25311089 433.72878316 -316 424 C-315.34 424 -314.68 424 -314 424 C-314.95336021 422.68388323 -315.91285774 421.37221039 -316.875 420.0625 C-317.40867187 419.33160156 -317.94234375 418.60070312 -318.4921875 417.84765625 C-319.88012104 415.88901765 -319.88012104 415.88901765 -322 415 C-322 414.01 -322 413.02 -322 412 C-322.53238281 411.80277344 -323.06476563 411.60554688 -323.61328125 411.40234375 C-327.08987627 409.3596308 -329.49399622 406.53306787 -332.1875 403.5625 C-332.76338867 402.93504883 -333.33927734 402.30759766 -333.93261719 401.66113281 C-338.08496203 397.10119583 -342.02820893 392.4006621 -345.8828125 387.5859375 C-348.05253317 384.93583587 -350.31471765 382.40308675 -352.625 379.875 C-366.086003 365.02310527 -366.086003 365.02310527 -366.36328125 353.44140625 C-365.40136139 346.97689105 -361.4922676 340.96688993 -358.375 335.3125 C-357.67407227 334.03947021 -357.67407227 334.03947021 -356.95898438 332.74072266 C-350.62213476 321.36797946 -343.77458429 310.29614096 -336.96386719 299.20361328 C-335.25145285 296.4101895 -333.54817972 293.6116279 -331.8515625 290.80859375 C-323.26222099 276.63041007 -314.2055969 262.78425199 -305 249 C-303.66647983 247.00012457 -302.33314456 245.00012583 -301 243 C-293 231 -293 231 -291.00439453 228.01025391 C-289.65191423 225.97906241 -288.30403271 223.94480229 -286.96044922 221.90771484 C-282.84445931 215.68177291 -278.59451924 209.6014443 -274.125 203.625 C-272.8976232 201.97195847 -271.67106492 200.31830889 -270.4453125 198.6640625 C-269.85524414 197.86774414 -269.26517578 197.07142578 -268.65722656 196.25097656 C-266.40435908 193.19095326 -264.19705684 190.10021479 -262 187 C-252.19966872 173.22063267 -242.15325543 159.71763238 -231.38085938 146.68066406 C-229.51780455 144.4131129 -227.69562664 142.11418653 -225.875 139.8125 C-220.01773418 132.47253718 -213.88540596 125.35888394 -207.76953125 118.234375 C-206.96660645 117.29899902 -206.96660645 117.29899902 -206.14746094 116.34472656 C-205.1191666 115.14790093 -204.08992578 113.9518876 -203.05957031 112.75683594 C-202.3513916 111.9336084 -202.3513916 111.9336084 -201.62890625 111.09375 C-200.95625732 110.31257813 -200.95625732 110.31257813 -200.27001953 109.515625 C-199.06364859 108.07595741 -197.91838569 106.58572752 -196.77734375 105.09375 C-196.19082031 104.4028125 -195.60429688 103.711875 -195 103 C-194.34 103 -193.68 103 -193 103 C-192.60941406 102.11634766 -192.60941406 102.11634766 -192.2109375 101.21484375 C-190.92577526 98.86424056 -189.56513183 97.39672944 -187.625 95.5625 C-184.83330187 92.85732144 -182.41083139 90.05371976 -180 87 C-178.3563186 85.31066078 -176.6857124 83.64740076 -175 82 C-174.40058594 81.39027344 -173.80117188 80.78054687 -173.18359375 80.15234375 C-169.2936368 76.20148728 -165.30200339 72.4782732 -161.08984375 68.875 C-157.86311109 65.97998752 -154.88111273 62.85154446 -151.8828125 59.72265625 C-150 58 -150 58 -148 58 C-147.67 57.01 -147.34 56.02 -147 55 C-144.84765625 53.01953125 -144.84765625 53.01953125 -142.0625 50.8125 C-141.05960938 50.01328125 -140.05671875 49.2140625 -139.0234375 48.390625 C-138.02570312 47.60171875 -137.02796875 46.8128125 -136 46 C-135.18789063 45.33484375 -134.37578125 44.6696875 -133.5390625 43.984375 C-128.64682362 39.98606681 -123.62053408 36.19863587 -118.5 32.5 C-117.88793701 32.05406494 -117.27587402 31.60812988 -116.64526367 31.14868164 C-112.23809933 28 -112.23809933 28 -110 28 C-110 27.34 -110 26.68 -110 26 C-109.00226562 25.43667969 -108.00453125 24.87335937 -106.9765625 24.29296875 C-104.39816337 22.82153647 -101.85656538 21.30644787 -99.3359375 19.73828125 C-69.89910849 1.59178033 -34.43390049 -10.20535644 0 0 Z M-50 41 C-51.01964844 41.3403125 -52.03929687 41.680625 -53.08984375 42.03125 C-73.00953146 49.1781925 -89.85599201 61.36155784 -106.0859375 74.6640625 C-109 77 -109 77 -111 78 C-111 78.66 -111 79.32 -111 80 C-111.53931152 80.22204102 -112.07862305 80.44408203 -112.63427734 80.67285156 C-115.77677935 82.435766 -118.24703991 84.77878812 -120.8515625 87.234375 C-121.41694733 87.76222595 -121.98233215 88.2900769 -122.56484985 88.83392334 C-128.68087431 94.57904132 -134.63647312 100.48527598 -140.55908203 106.42871094 C-142.39110995 108.2661576 -144.22850605 110.0981165 -146.06640625 111.9296875 C-151.92526402 117.78523741 -157.64484146 123.67398932 -163 130 C-164.45445517 131.60768373 -165.91220895 133.21239715 -167.375 134.8125 C-171.29060787 139.15213309 -175.01493288 143.6171311 -178.69140625 148.16015625 C-181.05671804 151.06976991 -183.46214681 153.94223389 -185.875 156.8125 C-189.6781425 161.37507504 -193.42831071 165.97569772 -197.125 170.625 C-197.61081543 171.22932861 -198.09663086 171.83365723 -198.59716797 172.45629883 C-201.16696874 175.37465856 -201.16696874 175.37465856 -202 179 C-202.66 179 -203.32 179 -204 179 C-205.87485747 181.29624238 -207.63536667 183.6038753 -209.375 186 C-210.46588934 187.48065776 -211.55704233 188.9611213 -212.6484375 190.44140625 C-213.2062793 191.20211426 -213.76412109 191.96282227 -214.33886719 192.74658203 C-216.37635433 195.51054533 -218.44805251 198.24747133 -220.52197266 200.98413086 C-226.6938149 209.14087182 -232.62000387 217.45602574 -238.48242188 225.83691406 C-240.02788184 228.03974149 -241.58270135 230.23565996 -243.140625 232.4296875 C-248.21367619 239.5769614 -253.22508502 246.74712924 -258.04296875 254.0703125 C-259.50076589 256.25264355 -260.97839837 258.40891275 -262.48828125 260.5546875 C-262.90634033 261.14991211 -263.32439941 261.74513672 -263.75512695 262.35839844 C-264.93717595 264.03584628 -266.12468721 265.7094411 -267.3125 267.3828125 C-269.18063276 269.76113918 -269.18063276 269.76113918 -269 272 C-265.30615781 271.34305558 -261.8895925 270.35254624 -258.3515625 269.109375 C-256.73266113 268.54367798 -256.73266113 268.54367798 -255.08105469 267.96655273 C-253.94055664 267.56509033 -252.80005859 267.16362793 -251.625 266.75 C-249.2475032 265.92286841 -246.86989989 265.0960429 -244.4921875 264.26953125 C-240.99320306 263.04910533 -237.49676931 261.82298799 -234.0078125 260.57421875 C-209.08327381 251.87752719 -182.63355913 245.71210937 -156.60742188 241.4375 C-153.50018285 240.91613555 -150.39896317 240.36367613 -147.296875 239.8125 C-130.67928868 236.89842218 -114.08727243 234.59514939 -97.26858521 233.19525146 C-95.64185202 233.0552426 -94.01583236 232.90684629 -92.39035034 232.75299072 C-72.51106799 230.88167605 -52.73318187 230.68771923 -32.78442383 230.73925781 C-28.3285313 230.75066021 -23.87287756 230.74387104 -19.41699314 230.73237228 C0.16178939 230.68956507 19.49951351 231.07241729 39 233 C40.33857885 233.118571 41.67734429 233.23507113 43.01635742 233.34863281 C94.81463329 237.86761581 145.21410656 249.68427551 194.36328125 266.36328125 C195.01731934 266.58488922 195.67135742 266.80649719 196.34521484 267.03482056 C198.96669288 267.93064363 201.57795594 268.82975139 204.14755249 269.86630249 C208.47807121 271.75567525 208.47807121 271.75567525 213 271 C212.67837891 270.51756836 212.35675781 270.03513672 212.02539062 269.53808594 C211.06376452 268.09564678 210.10217961 266.65318017 209.140625 265.21069336 C208.03675809 263.55505726 206.93258595 261.89962464 205.828125 260.24438477 C203.49308817 256.74421638 201.16023033 253.24295795 198.84375 249.73046875 C193.55641601 241.72105391 188.03149016 233.88788728 182.46972656 226.06787109 C181.11982681 224.16859354 179.77413214 222.266422 178.4296875 220.36328125 C166.75136809 203.87144296 154.4381212 187.83572014 141.9140625 171.97949219 C138.66000423 167.85815258 135.47350173 163.690528 132.33984375 159.4765625 C131.67662109 158.74566406 131.67662109 158.74566406 131 158 C130.34 158 129.68 158 129 158 C128.75378906 157.44570312 128.50757813 156.89140625 128.25390625 156.3203125 C123.56077577 147.63582806 115.62701175 140.251131 109 133 C107.33102712 131.16876587 105.66430595 129.33547666 104 127.5 C102.88625 126.27796875 102.88625 126.27796875 101.75 125.03125 C100 123 100 123 99 121 C98.34 121 97.68 121 97 121 C96.67 120.01 96.34 119.02 96 118 C95.34 118 94.68 118 94 118 C93.7628125 117.43829102 93.525625 116.87658203 93.28125 116.29785156 C91.70680643 113.47417342 89.78315455 111.52385158 87.5 109.234375 C86.613125 108.34492188 85.72625 107.45546875 84.8125 106.5390625 C83.884375 105.61867188 82.95625 104.69828125 82 103.75 C81.071875 102.81414062 80.14375 101.87828125 79.1875 100.9140625 C78.300625 100.02976563 77.41375 99.14546875 76.5 98.234375 C75.27796875 97.01572754 75.27796875 97.01572754 74.03125 95.77246094 C72.19815007 93.78084061 72.19815007 93.78084061 70 94 C69.67 93.01 69.34 92.02 69 91 C68.34 91 67.68 91 67 91 C66.80535156 90.45988281 66.61070312 89.91976562 66.41015625 89.36328125 C64.35890605 85.92559048 61.49562824 83.72673861 58.4375 81.1875 C57.80489258 80.65487549 57.17228516 80.12225098 56.52050781 79.57348633 C37.24386795 63.42033056 15.31917779 47.42257113 -9 40 C-9.73734375 39.77441406 -10.4746875 39.54882812 -11.234375 39.31640625 C-23.60287748 36.22428063 -38.0171476 36.86683255 -50 41 Z M-155 283 C-155.10406525 284.38275066 -155.13960683 285.7707387 -155.14717102 287.15737915 C-155.15432632 288.05421921 -155.16148163 288.95105927 -155.16885376 289.87507629 C-155.17154266 290.86714584 -155.17423157 291.85921539 -155.17700195 292.88134766 C-155.18357315 293.92053848 -155.19014435 294.95972931 -155.19691467 296.03041077 C-155.21672245 299.49162869 -155.22833367 302.95280283 -155.23828125 306.4140625 C-155.24235678 307.59697247 -155.2464323 308.77988243 -155.25063133 309.99863815 C-155.27153487 316.27285337 -155.28581174 322.5470465 -155.29516602 328.82128906 C-155.30617278 335.27579569 -155.34049378 341.72995205 -155.38033772 348.18433571 C-155.40662368 353.16554357 -155.41486901 358.14667003 -155.41844749 363.12794113 C-155.42329125 365.50473745 -155.43484135 367.88153069 -155.45348549 370.25825882 C-155.56974172 386.07594585 -155.46813469 400.79850902 -146.9375 414.6875 C-146.26589844 415.80511719 -145.59429688 416.92273438 -144.90234375 418.07421875 C-142.60342637 421.65130151 -142.60342637 421.65130151 -140 425 C-139.34 425 -138.68 425 -138 425 C-137.67 425.99 -137.34 426.98 -137 428 C-136.34 428 -135.68 428 -135 428 C-135 428.66 -135 429.32 -135 430 C-125.42308721 439.16984043 -112.66856593 444.94755644 -101.17138672 451.25097656 C-96.46157514 453.84844309 -91.7910905 456.51250889 -87.125 459.1875 C-86.27631348 459.67202637 -85.42762695 460.15655273 -84.55322266 460.65576172 C-80.31566179 463.07943486 -76.09492435 465.52805261 -71.89453125 468.015625 C-53.40615316 478.94032994 -35.49509605 486.90750976 -13.625 481.75 C-11.73990053 481.20017932 -9.86367923 480.61854871 -8 480 C-7.1853125 479.73316406 -6.370625 479.46632813 -5.53125 479.19140625 C0.59790837 476.95267146 6.14516239 473.76544067 11.7578125 470.47265625 C15.98474465 467.99333834 20.25759463 465.59879349 24.53125 463.20117188 C32.8571048 458.52860775 41.08001281 453.77733096 49.16015625 448.69140625 C52.0836481 446.95017933 55.05543712 445.4663517 58.125 444 C75.6533771 435.46705653 88.86219018 422.1666745 96 404 C98.53676215 396.45807677 99.42702961 389.58112658 99.34057617 381.65356445 C99.34101425 380.5790654 99.34145233 379.50456635 99.34190369 378.39750671 C99.33983256 374.885906 99.31658082 371.37479739 99.29296875 367.86328125 C99.28736684 365.41277833 99.28309956 362.96227202 99.28010559 360.51176453 C99.26870374 354.09203662 99.23927679 347.67251543 99.20599365 341.25286865 C99.17519204 334.69009191 99.16157874 328.12728146 99.14648438 321.56445312 C99.11440253 308.70954772 99.06384737 295.8547849 99 283 C95.19404864 281.41982286 91.7205681 280.47878819 87.64453125 279.81640625 C86.39575195 279.61249268 85.14697266 279.4085791 83.86035156 279.19848633 C82.5111844 278.98574953 81.16189721 278.77377271 79.8125 278.5625 C78.77965881 278.39867325 78.77965881 278.39867325 77.72595215 278.23153687 C45.5660536 273.14473801 -131.00204479 259.00204479 -155 283 Z M-293.41015625 329.046875 C-295.82639772 330.40958005 -298.23294846 331.54865676 -300.80859375 332.578125 C-311.24493328 336.86887719 -315.23042475 343.19587309 -320 353 C-318.6446674 355.53673288 -318.6446674 355.53673288 -317 358 C-316.34 358 -315.68 358 -315 358 C-314.78472656 358.53367187 -314.56945312 359.06734375 -314.34765625 359.6171875 C-312.50423156 362.87657608 -309.99986627 365.4281177 -307.4375 368.125 C-302.11993243 373.76013514 -302.11993243 373.76013514 -301 376 C-300.34 376 -299.68 376 -299 376 C-298.62875 376.8353125 -298.62875 376.8353125 -298.25 377.6875 C-296.77075182 380.42410913 -295.06532561 382.67650869 -293 385 C-292.34 385 -291.68 385 -291 385 C-290.67 385.99 -290.34 386.98 -290 388 C-289.34 388 -288.68 388 -288 388 C-287.75636719 388.57234375 -287.51273437 389.1446875 -287.26171875 389.734375 C-285.77482702 392.40433538 -284.01916092 394.13829007 -281.8125 396.25 C-279.03885735 398.95791652 -276.36894585 401.6581761 -273.875 404.625 C-268.51781337 410.87926269 -262.51805133 416.55761398 -256.66967773 422.34667969 C-252.97068196 426.00943731 -249.30277055 429.70277114 -245.63671875 433.3984375 C-243.98704484 435.05735698 -242.33730342 436.71620932 -240.6875 438.375 C-239.87087891 439.2 -239.05425781 440.025 -238.21289062 440.875 C-233.90521005 445.19984265 -229.53597758 449.36684366 -224.90454102 453.34277344 C-222.96755921 455.02822818 -221.0923523 456.76357221 -219.2265625 458.52734375 C-218.62972656 459.09130859 -218.03289062 459.65527344 -217.41796875 460.23632812 C-216.19666621 461.3951021 -214.97801706 462.55667759 -213.76171875 463.72070312 C-210.87057771 466.89308478 -210.87057771 466.89308478 -207 468 C-207 468.66 -207 469.32 -207 470 C-205.28048026 471.53851766 -203.49812503 473.00731759 -201.6875 474.4375 C-196.20858941 478.7848186 -196.20858941 478.7848186 -194.26953125 480.78515625 C-193.05202499 482.23045802 -193.05202499 482.23045802 -191 482 C-191 482.66 -191 483.32 -191 484 C-188.74592092 485.95981288 -186.4867439 487.80400764 -184.125 489.625 C-183.47402344 490.140625 -182.82304688 490.65625 -182.15234375 491.1875 C-178.93493326 494.02464903 -178.93493326 494.02464903 -175 495 C-175 495.66 -175 496.32 -175 497 C-172.90911748 498.83627046 -172.90911748 498.83627046 -170.125 500.8125 C-169.59688721 501.19994385 -169.06877441 501.5873877 -168.5246582 501.98657227 C-167.3401798 502.85323501 -166.15325357 503.71655871 -164.96435547 504.57714844 C-162.87822984 506.0882024 -160.80035154 507.61019118 -158.72265625 509.1328125 C-149.30707296 516.00768284 -139.74805392 522.60725449 -130 529 C-127.99766274 530.32986892 -125.99862634 531.66455422 -124 533 C-127.10796686 539.51374872 -130.72505164 545.57952539 -134.5625 551.6875 C-135.70987859 553.52458773 -136.85702177 555.36182251 -138.00390625 557.19921875 C-138.50736572 558.00190186 -139.0108252 558.80458496 -139.52954102 559.6315918 C-141.04526114 562.07290026 -142.52754514 564.53239897 -144 567 C-165.4935354 559.02104992 -187.09876861 539.94817917 -204.38671875 525.21875 C-206.84407226 523.13238708 -209.34372408 521.12057779 -211.875 519.125 C-221.42216545 511.52404645 -230.57987718 503.46259094 -239.5703125 495.21484375 C-241.60515415 493.35993183 -243.66321247 491.54571202 -245.75 489.75 C-255.65863548 481.11533194 -265.15164947 472.00859989 -274.34423828 462.61889648 C-277.40976048 459.50523192 -280.51509507 456.65578257 -284 454 C-288.0329768 455.38769094 -290.85483193 457.2798602 -294.125 460 C-296.71026378 462.13736093 -299.20638341 464.13758894 -302 466 C-302 466.66 -302 467.32 -302 468 C-302.53753906 468.21140625 -303.07507813 468.4228125 -303.62890625 468.640625 C-306.89236802 470.51160473 -309.33061856 473.08128242 -311.9375 475.75 C-312.44990234 476.26304687 -312.96230469 476.77609375 -313.49023438 477.3046875 C-319.82547011 482.94777854 -319.82547011 482.94777854 -323 490 C-323.66 490 -324.32 490 -325 490 C-326.28602628 491.38069912 -326.28602628 491.38069912 -327.5390625 493.2265625 C-328.03317627 493.92160889 -328.52729004 494.61665527 -329.03637695 495.33276367 C-329.82274536 496.46742065 -329.82274536 496.46742065 -330.625 497.625 C-331.43360474 498.7838269 -331.43360474 498.7838269 -332.25854492 499.96606445 C-336.94128047 506.76060822 -341.12361962 513.70971413 -345 521 C-345.60457031 522.12792969 -346.20914062 523.25585938 -346.83203125 524.41796875 C-353.13031996 536.56172803 -357.57793641 548.98358975 -361.25 562.125 C-361.4962915 562.99447266 -361.74258301 563.86394531 -361.99633789 564.75976562 C-365.34861507 577.20082468 -366.29707202 589.51549113 -366.22705078 602.35888672 C-366.22648492 603.83876538 -366.22680663 605.31864461 -366.22793579 606.79852295 C-366.22850348 610.76869241 -366.21684513 614.73873801 -366.20278788 618.70887899 C-366.19018185 622.87550298 -366.18910231 627.04213063 -366.18673706 631.20877075 C-366.18055103 639.07775947 -366.16417967 646.9466918 -366.14403808 654.81565583 C-366.12158887 663.78315379 -366.11066309 672.75065462 -366.10064721 681.71817374 C-366.07981049 700.14548098 -366.04469122 718.57273594 -366 737 C-355.34308778 737.0462719 -344.68619932 737.08184295 -334.02920723 737.10362434 C-329.08112168 737.11407654 -324.13310468 737.12826183 -319.18505859 737.15087891 C-314.41292519 737.17255623 -309.64085787 737.1845578 -304.86867905 737.18975449 C-303.0449507 737.19345946 -301.22122611 737.200694 -299.39752579 737.21146011 C-296.84973488 737.22590721 -294.30221958 737.22798081 -291.75439453 737.22705078 C-290.99482452 737.23424133 -290.23525452 737.24143188 -289.45266724 737.24884033 C-285.26915716 737.37361364 -285.26915716 737.37361364 -282 735 C-281.70054706 732.35652242 -281.70054706 732.35652242 -281.75949097 729.21676636 C-281.75674164 727.98555054 -281.75399231 726.75433472 -281.75115967 725.48580933 C-281.75823841 724.11407374 -281.76550804 722.74233913 -281.77294922 721.37060547 C-281.77351312 719.93190519 -281.77319719 718.49320434 -281.77206421 717.05450439 C-281.77148887 713.14147438 -281.78327239 709.22856624 -281.79721212 705.31556463 C-281.80968937 701.22894752 -281.8108876 697.14232781 -281.81326294 693.05569458 C-281.81948657 685.3138037 -281.83590929 677.5719691 -281.85596192 669.83010304 C-281.87829349 661.01765666 -281.88930744 652.20520763 -281.89935279 643.39274001 C-281.92027479 625.26178825 -281.95696201 607.13091368 -282 589 C-267.81 589 -253.62 589 -239 589 C-239 618.04 -239 647.08 -239 677 C-238.01 676.67 -237.02 676.34 -236 676 C-236 675.34 -236 674.68 -236 674 C-235.34 674 -234.68 674 -234 674 C-232.33333333 672.66666667 -232.33333333 672.66666667 -231 671 C-231 670.34 -231 669.68 -231 669 C-230.01 668.67 -229.02 668.34 -228 668 C-228 667.34 -228 666.68 -228 666 C-227.45859375 665.77054688 -226.9171875 665.54109375 -226.359375 665.3046875 C-223.31426147 663.62080022 -220.84924031 661.40925337 -218.25 659.125 C-205.4064814 648.10660336 -191.95377966 638.79998314 -177.30224609 630.33251953 C-175.24150116 629.13977872 -173.1913592 627.93124745 -171.14453125 626.71484375 C-137.60102958 606.92119777 -96.79316454 594.03412905 -57.96875 591.21582031 C-56.019136 591.07408851 -54.07091505 590.91132036 -52.125 590.72558594 C-43.91613041 589.94497099 -35.74195446 589.80151366 -27.5 589.8125 C-26.79989807 589.81243958 -26.09979614 589.81237915 -25.378479 589.81231689 C-13.81581278 589.82647351 -2.46252978 590.45026155 9 592 C10.19367188 592.144375 11.38734375 592.28875 12.6171875 592.4375 C16.09370699 592.88711915 19.54271559 593.42069133 23 594 C24.04099854 594.17305664 24.04099854 594.17305664 25.10302734 594.34960938 C52.75461089 599.07309687 80.24252642 607.85099783 105.05712891 620.99389648 C106.45488924 621.71771784 107.86514935 622.41758492 109.28271484 623.10180664 C115.91612816 626.30972585 122.06919638 630.05941084 128.25 634.0625 C129.20390625 634.67416016 130.1578125 635.28582031 131.140625 635.91601562 C134.97428679 638.37861087 138.79434232 640.84889473 142.546875 643.43359375 C144.7958479 645.17939249 144.7958479 645.17939249 147 645 C147 645.66 147 646.32 147 647 C148.97195261 648.46355858 150.95586316 649.83109487 153 651.1875 C159.90071502 655.90136871 165.87641416 661.3367812 171.84375 667.17260742 C172.48828125 667.7988501 173.1328125 668.42509277 173.796875 669.0703125 C174.36760742 669.63508301 174.93833984 670.19985352 175.52636719 670.78173828 C176.93824193 672.2123884 176.93824193 672.2123884 179 672 C179 672.66 179 673.32 179 674 C181.63684747 676.39820305 181.63684747 676.39820305 185 677 C185 648.29 185 619.58 185 590 C205.295 589.505 205.295 589.505 226 589 C225.97643433 595.51186035 225.97643433 595.51186035 225.95239258 602.15527344 C225.90275015 616.47634569 225.86941974 630.79742126 225.84456348 645.11855698 C225.82908833 653.80401746 225.80798646 662.48939648 225.77368164 671.17480469 C225.74379909 678.7441705 225.72442971 686.31347732 225.71773452 693.88290048 C225.7138203 697.89163021 225.704608 701.90019118 225.68280983 705.90886688 C225.66246268 709.68122799 225.65616256 713.45335065 225.66067696 717.22576141 C225.65985096 718.61089371 225.65387459 719.9960339 225.64238358 721.38111877 C225.62746914 723.27141566 225.63283144 725.16184019 225.63923645 727.05218506 C225.63647107 728.1104034 225.63370569 729.16862175 225.63085651 730.25890732 C226.05493521 733.40792407 226.73847875 734.78684319 229 737 C231.75654067 737.38169889 234.11265662 737.50651565 236.86791992 737.45410156 C237.66815079 737.45468567 238.46838165 737.45526978 239.29286194 737.45587158 C241.93917143 737.45308376 244.58435594 737.42195985 247.23046875 737.390625 C249.06463506 737.38316507 250.89880933 737.37747097 252.73298645 737.37347412 C257.56157418 737.35819823 262.38968097 737.31889967 267.21807861 737.2746582 C272.14466851 737.23374759 277.07133609 737.21547211 281.99804688 737.1953125 C291.66557595 737.15240724 301.33274799 737.08413232 311 737 C311.04686878 718.35342008 311.08206139 699.70685224 311.10362434 681.06022549 C311.11390568 672.40088867 311.12790541 663.74158861 311.15087891 655.08227539 C311.17090955 647.52855196 311.18373923 639.97485517 311.18817699 632.42110592 C311.1907681 628.42715692 311.19679161 624.43328408 311.21146011 620.43935966 C311.22519753 616.66782004 311.2291906 612.89638679 311.22621536 609.12482452 C311.22701418 607.10593293 311.23769016 605.08705249 311.24884033 603.06819153 C311.1817395 572.78801955 301.97542511 543.38056518 287.19921875 517.13891602 C286.38040418 515.67848555 285.57629987 514.20973454 284.78515625 512.73413086 C282.00356048 507.57640532 278.92234891 502.84907654 275.375 498.1875 C274.8586499 497.50389404 274.3422998 496.82028809 273.81030273 496.1159668 C267.46672855 487.83657372 260.39064434 480.35338058 253 473 C252.2575 472.236875 251.515 471.47375 250.75 470.6875 C247.6562159 467.66402918 244.43815929 464.81329366 241.18359375 461.96484375 C239 460 239 460 237.09765625 457.94140625 C234.61974828 455.64807243 232.05996082 454.39089128 229 453 C228.27554688 453.73605469 227.55109375 454.47210938 226.8046875 455.23046875 C217.99636097 464.13316477 217.99636097 464.13316477 214.3125 467.0625 C213.549375 467.701875 212.78625 468.34125 212 469 C212 469.66 212 470.32 212 471 C211.01 471.33 210.02 471.66 209 472 C209 472.66 209 473.32 209 474 C208.34 474 207.68 474 207 474 C205.81853044 475.14771329 204.6432713 476.30284213 203.5078125 477.49609375 C201.2694785 479.72862896 198.8126482 481.68231627 196.35546875 483.66796875 C195.90816406 484.10753906 195.46085938 484.54710937 195 485 C195 485.66 195 486.32 195 487 C194.40445313 487.26554688 193.80890625 487.53109375 193.1953125 487.8046875 C190.93670616 489.03446248 189.61255644 490.24774053 187.875 492.125 C184.20342842 495.94055478 180.1548278 499.10460902 175.94140625 502.30078125 C175.30074219 502.86152344 174.66007813 503.42226563 174 504 C174 504.66 174 505.32 174 506 C173.15695312 506.38671875 173.15695312 506.38671875 172.296875 506.78125 C169.73295421 508.14169777 167.54773635 509.72788962 165.25 511.5 C164.05117187 512.41265625 164.05117187 512.41265625 162.828125 513.34375 C161.92320312 514.16359375 161.92320312 514.16359375 161 515 C161 515.66 161 516.32 161 517 C159 518 157 519 155 520 C155 520.66 155 521.32 155 522 C154.42644775 522.26377441 153.85289551 522.52754883 153.26196289 522.79931641 C150.8717008 524.06810313 148.92045937 525.52115673 146.80859375 527.2109375 C142.293978 530.77874696 137.70100272 534.22041858 133.0625 537.625 C132.24692627 538.22401123 131.43135254 538.82302246 130.59106445 539.44018555 C128.06209108 541.29535025 125.53108151 543.147713 123 545 C122.20754883 545.58185059 121.41509766 546.16370117 120.59863281 546.76318359 C115.43092223 550.55434715 110.23757645 554.30588742 105 558 C104.31405762 558.48500977 103.62811523 558.97001953 102.92138672 559.46972656 C101.00232569 560.81283723 99.06832625 562.12982434 97.125 563.4375 C96.03445313 564.17871094 94.94390625 564.91992188 93.8203125 565.68359375 C91 567 91 567 88.99682617 566.34155273 C86.63178696 564.75261882 85.66068936 563.30826353 84.23046875 560.8515625 C83.73708008 560.01592773 83.24369141 559.18029297 82.73535156 558.31933594 C82.22456055 557.43020508 81.71376953 556.54107422 81.1875 555.625 C80.65995117 554.72555664 80.13240234 553.82611328 79.58886719 552.89941406 C78.04991066 550.27158211 76.52424103 547.6363858 75 545 C74.22123729 543.66857689 73.44143892 542.33775846 72.66015625 541.0078125 C71.0979793 538.34348616 69.54402942 535.67486786 68 533 C68.6084375 532.62230469 69.216875 532.24460937 69.84375 531.85546875 C84.06239261 522.92699758 97.68343541 513.21842507 111 503 C111.60585938 502.5359375 112.21171875 502.071875 112.8359375 501.59375 C120.10040425 496.01057905 127.15630252 490.23196954 134.07128906 484.22119141 C138.09402819 480.73381968 142.22320864 477.44776387 146.5234375 474.3046875 C147.01070312 473.87414062 147.49796875 473.44359375 148 473 C148 472.34 148 471.68 148 471 C148.53753906 470.78085937 149.07507813 470.56171875 149.62890625 470.3359375 C152.81298668 468.54194161 155.30391908 466.1237784 157.9375 463.625 C158.96599574 462.65730841 159.99592709 461.69114021 161.02734375 460.7265625 C161.52218262 460.26282227 162.01702148 459.79908203 162.52685547 459.32128906 C163.92017407 458.07159727 165.39838535 456.9184808 166.87890625 455.7734375 C167.92884766 454.89558594 167.92884766 454.89558594 169 454 C169 453.34 169 452.68 169 452 C169.99 451.67 170.98 451.34 172 451 C172 450.34 172 449.68 172 449 C172.58136719 448.74734375 173.16273438 448.4946875 173.76171875 448.234375 C176.26071618 446.85621935 177.84834704 445.31416075 179.8125 443.25 C182.89436577 440.08188799 186.05556202 437.14396402 189.45703125 434.32421875 C191.06605334 432.94331118 192.58693038 431.58280772 194 430 C194 429.34 194 428.68 194 428 C194.66 428 195.32 428 196 428 C197.4081132 426.61088239 197.4081132 426.61088239 198.8125 424.8125 C201.92353756 420.98417228 205.38220351 417.58827997 208.90014648 414.13452148 C211.0408009 412.03040812 213.17671946 409.92155942 215.3125 407.8125 C216.05306641 407.08869141 216.79363281 406.36488281 217.55664062 405.61914062 C218.25595703 404.92626953 218.95527344 404.23339844 219.67578125 403.51953125 C220.31427002 402.89151611 220.95275879 402.26350098 221.6105957 401.61645508 C223.21727926 400.10246695 223.21727926 400.10246695 223 398 C223.57621094 397.76023437 224.15242187 397.52046875 224.74609375 397.2734375 C227.45749956 395.74151671 229.02441882 393.97926948 231.0625 391.625 C234.53807317 387.66273207 238.05086758 383.74784752 241.625 379.875 C246.3961007 374.67539423 246.3961007 374.67539423 251.125 369.4375 C251.93324219 368.53837891 251.93324219 368.53837891 252.7578125 367.62109375 C254.21292728 365.90456703 254.21292728 365.90456703 255 363 C255.66 363 256.32 363 257 363 C258.89403138 361.17110135 258.89403138 361.17110135 260.75 358.8125 C261.40484375 358.03519531 262.0596875 357.25789063 262.734375 356.45703125 C263.15203125 355.64621094 263.5696875 354.83539063 264 354 C263.21652033 351.57131797 263.21652033 351.57131797 262 349 C261.54246338 347.7788147 261.54246338 347.7788147 261.07568359 346.53295898 C257.89574479 339.05530706 253.85448591 336.39835087 246.625 333.0625 C245.61203857 332.5665332 244.59907715 332.07056641 243.55541992 331.55957031 C241.4362008 330.52705048 239.31031075 329.50811891 237.17822266 328.50244141 C234.12598192 327.05955544 231.09837063 325.5749295 228.07421875 324.07421875 C203.62042608 312.02087079 178.00600228 302.62279134 151.875 294.875 C151.20122314 294.67495361 150.52744629 294.47490723 149.83325195 294.26879883 C147.10637955 293.48881424 144.85530002 293 142 293 C141.98969254 293.99541809 141.97938507 294.99083618 141.96876526 296.01641846 C141.87017488 305.48743445 141.76737624 314.95839709 141.66066074 324.4293251 C141.6059529 329.2961259 141.55262844 334.16293294 141.50268555 339.02978516 C141.45425768 343.74368218 141.4019089 348.45752206 141.34705925 353.17134857 C141.32698392 354.95226328 141.30822299 356.73319341 141.29092598 358.51413727 C141.19847609 367.93879823 140.99953334 377.34922125 140.55834961 386.76464844 C140.52241227 387.57501682 140.48647493 388.38538521 140.44944859 389.22031021 C138.96714148 418.21757031 125.27163499 443.78148168 104 463 C103.34 463.33 102.68 463.66 102 464 C102 464.66 102 465.32 102 466 C101.29061279 466.26264648 100.58122559 466.52529297 99.8503418 466.79589844 C96.84497182 468.06549028 94.18483786 469.57618063 91.39453125 471.265625 C90.32783203 471.90886719 89.26113281 472.55210937 88.16210938 473.21484375 C87.05673828 473.88644531 85.95136719 474.55804688 84.8125 475.25 C83.72646484 475.90613281 82.64042969 476.56226563 81.52148438 477.23828125 C79.36976976 478.53835627 77.21871726 479.83952783 75.06835938 481.1418457 C61.71522095 489.22831424 61.71522095 489.22831424 56.875 491.8125 C53.10955222 493.8448965 49.3667887 495.91130952 45.64306641 498.01928711 C43.62307449 499.16142736 41.59897686 500.2960204 39.57421875 501.4296875 C37.17266424 502.77455802 34.77696268 504.12789086 32.38916016 505.49707031 C13.08108202 516.56460772 -4.64339927 523.43462131 -27.25 523.3125 C-28.33901611 523.30758545 -29.42803223 523.3026709 -30.55004883 523.29760742 C-55.55741257 522.93657715 -76.62765344 512.89682554 -97.5546875 500.0859375 C-101.33357182 497.77880736 -105.2031658 495.66422383 -109.1015625 493.56640625 C-119.3274699 488.04000616 -129.40014025 482.23525378 -139.4375 476.375 C-140.34862549 475.84898193 -141.25975098 475.32296387 -142.19848633 474.78100586 C-147.54277174 471.64141515 -152.42641871 468.25669579 -157.20727539 464.30712891 C-158.89956408 462.80361577 -158.89956408 462.80361577 -161 463 C-161 462.34 -161 461.68 -161 461 C-162.08426935 460.01567727 -163.22065414 459.08861979 -164.375 458.1875 C-183.07168095 442.19952548 -193.66778347 416.97592796 -195.7844677 392.95435143 C-196.10332826 388.58365552 -196.17625602 384.22784035 -196.20532227 379.84692383 C-196.21522186 378.89922119 -196.22512146 377.95151855 -196.23532104 376.97509766 C-196.26655899 373.88576638 -196.29154203 370.79641981 -196.31640625 367.70703125 C-196.33700847 365.54798515 -196.35800572 363.38894278 -196.37937927 361.22990417 C-196.43426277 355.57969206 -196.4838191 349.92944561 -196.53222656 344.2791748 C-196.58268967 338.50053901 -196.63824552 332.72195235 -196.69335938 326.94335938 C-196.80052773 315.62894835 -196.90206241 304.31449443 -197 293 C-226.44195358 293 -267.79227264 314.52696748 -293.41015625 329.046875 Z M-57 648 C-62.54072099 654.89698855 -66.98661871 662.13457937 -71 670 C-71.62209489 671.18245005 -72.24450821 672.3647326 -72.8671875 673.546875 C-80.04344352 687.3451951 -85.75231729 701.71689547 -90.5625 716.5 C-90.82627441 717.29510986 -91.09004883 718.09021973 -91.36181641 718.90942383 C-92.55031206 722.69934952 -93.20375075 725.20610609 -92 729 C-83.13659292 731.23571216 -74.28033105 733.2461468 -65.25 734.6875 C-64.51998779 734.80649658 -63.78997559 734.92549316 -63.0378418 735.0480957 C-32.73680518 739.69150945 -2.24300861 737.13268858 27.625 731.21875 C28.56601562 731.03248047 29.50703125 730.84621094 30.4765625 730.65429688 C32.88186472 730.03063105 34.83428517 729.2023276 37 728 C30.15242853 695.91423653 14.14831454 653.97024474 -13.75 634.375 C-30.86668235 624.00125312 -45.4727709 634.74487003 -57 648 Z M48 642 C48.92346143 646.14565591 50.75491097 649.6835693 52.6875 653.4375 C53.42047242 654.88871665 54.1522308 656.34054708 54.8828125 657.79296875 C55.42470215 658.86877197 55.42470215 658.86877197 55.97753906 659.96630859 C62.51630484 672.9720199 67.22930348 686.42621191 71.70703125 700.25 C71.97773437 701.08055908 72.2484375 701.91111816 72.52734375 702.7668457 C73.04134185 704.35151336 73.54814418 705.93853749 74.046875 707.52807617 C74.64231413 709.37095188 75.31417164 711.18881859 76 713 C76.66 713.33 77.32 713.66 78 714 C80.43214091 713.05030959 80.43214091 713.05030959 83.171875 711.5703125 C84.22246094 711.02648926 85.27304687 710.48266602 86.35546875 709.92236328 C87.47566406 709.3292334 88.59585938 708.73610352 89.75 708.125 C91.45349609 707.22950439 91.45349609 707.22950439 93.19140625 706.31591797 C104.84845519 700.1226944 115.78211985 693.40677441 126 685 C125.20882096 683.00016466 125.20882096 683.00016466 124 681 C122.515 680.505 122.515 680.505 121 680 C121 679.34 121 678.68 121 678 C119.13624673 676.54728852 119.13624673 676.54728852 116.625 675.0625 C115.60921875 674.43859375 114.5934375 673.8146875 113.546875 673.171875 C112.97775391 672.82576172 112.40863281 672.47964844 111.82226562 672.12304688 C109.91151385 670.94546674 108.02599934 669.73337915 106.140625 668.515625 C78.83727146 650.38157511 78.83727146 650.38157511 48 642 Z M-172.4375 675.375 C-173.16573975 675.87483398 -173.89397949 676.37466797 -174.64428711 676.88964844 C-175.3172583 677.36692383 -175.99022949 677.84419922 -176.68359375 678.3359375 C-177.27712646 678.75407715 -177.87065918 679.1722168 -178.48217773 679.60302734 C-180.24656279 681.22693136 -181.05465659 682.81351124 -182 685 C-179.29253299 686.97307271 -176.58360392 688.9440183 -173.87109375 690.91015625 C-172.27215775 692.07400763 -170.67705733 693.24336747 -169.09765625 694.43359375 C-164.04493308 698.2015169 -158.56518646 701.06334229 -153 704 C-151.37868933 704.86808457 -149.75761414 705.73660901 -148.13671875 706.60546875 C-146.40391097 707.5291434 -144.6708366 708.4523181 -142.9375 709.375 C-142.09155273 709.82834717 -141.24560547 710.28169434 -140.37402344 710.7487793 C-139.57899414 711.1694165 -138.78396484 711.59005371 -137.96484375 712.0234375 C-137.2493335 712.40419434 -136.53382324 712.78495117 -135.79663086 713.17724609 C-134.02627661 714.13878705 -134.02627661 714.13878705 -132 714 C-131.73896484 713.19071045 -131.47792969 712.3814209 -131.20898438 711.54760742 C-124.6253067 691.22727652 -117.58028968 671.53495766 -107.76171875 652.515625 C-106.0257346 649.05135507 -104.48954182 645.57490036 -103 642 C-125.36829119 642 -154.66505753 663.0388563 -172.4375 675.375 Z M-637.9375 658.9375 C-642.23916526 664.36436936 -643.47071678 668.52438816 -643.31640625 675.4375 C-642.52029458 681.88502164 -639.01487922 686.98809662 -634 691 C-628.76611538 694.00628024 -624.11284395 695.87326342 -618 695 C-611.28152463 692.72176268 -605.40593982 689.7490447 -601.6875 683.5 C-598.96260038 677.53858696 -598.94402529 670.94670548 -600.625 664.6640625 C-603.41714743 658.15736179 -608.75479102 654.4570326 -615.0625 651.625 C-624.29107767 649.66147284 -631.60730562 651.97560223 -637.9375 658.9375 Z M550 657 C550 657.66 550 658.32 550 659 C549.34 659 548.68 659 548 659 C543.06352678 665.4791211 543.03298817 672.05934514 544 680 C545.04336764 682.8332828 546.15380315 684.57686663 548 687 C548.66 687 549.32 687 550 687 C550.33 687.99 550.66 688.98 551 690 C554.67729247 693.53585814 559.15902899 694.99505057 564.2421875 695.00390625 C571.30794287 694.42104091 575.91925686 692.40303417 580.75 687.125 C585.21285724 681.68681634 586.49238293 677.58283865 586.3046875 670.5546875 C585.45477482 663.42849658 581.51495213 658.84015146 576.0859375 654.41015625 C566.91513876 648.21042152 558.40061564 651.39958957 550 657 Z M151.5625 717.0625 C143.91753572 723.12055356 136.27086998 728.94663384 127.65234375 733.56640625 C125.56449316 734.69489103 123.50072479 735.84850932 121.44140625 737.02734375 C112.11573817 742.35762123 102.64436746 747.2740461 93 752 C90.99909747 752.99819291 88.99876848 753.99754073 87 755 C87.10022461 755.66604248 87.20044922 756.33208496 87.30371094 757.01831055 C88.1668389 762.76711464 89.01877253 768.51738778 89.859375 774.26953125 C90.548309 778.98055534 91.26410731 783.68531247 92.015625 788.38671875 C95.8848815 813.44130157 97.20845961 838.72648378 99 864 C127.05 864 155.1 864 184 864 C184 877.53 184 891.06 184 905 C155.95 905 127.9 905 99 905 C98.195625 916.818125 98.195625 916.818125 97.375 928.875 C95.75387333 951.34724173 93.18748825 973.51404098 89.66308594 995.76123047 C88.704783 1001.83065618 87.84954395 1007.9144787 87 1014 C88.13417358 1014.56690552 88.13417358 1014.56690552 89.29125977 1015.14526367 C91.3081761 1016.15399452 93.32423477 1017.16444061 95.33984375 1018.17578125 C97.78256203 1019.39812988 100.23337988 1020.60172665 102.69140625 1021.79296875 C117.49459549 1029.00831811 131.96608793 1036.8798123 145 1047 C146.43576109 1048.08563689 147.8731433 1049.16913476 149.3125 1050.25 C150.25029297 1050.95769531 150.25029297 1050.95769531 151.20703125 1051.6796875 C153.7457716 1053.54917386 156.35685811 1055.28195777 159 1057 C160.33927721 1055.54712339 161.67126847 1054.08752741 163 1052.625 C163.7425 1051.81289062 164.485 1051.00078125 165.25 1050.1640625 C167.20959813 1048.20466008 167.20959813 1048.20466008 167 1046 C167.66 1046 168.32 1046 169 1046 C170.4033221 1044.34867701 171.72105082 1042.62441977 173 1040.875 C173.39227783 1040.3394751 173.78455566 1039.8039502 174.1887207 1039.25219727 C175.0294448 1038.10120002 175.86698184 1036.94786948 176.70166016 1035.79248047 C177.99206158 1034.01095974 179.29748825 1032.24129679 180.60546875 1030.47265625 C185.67573019 1023.56605012 190.06763871 1016.62610843 194 1009 C194.74187976 1007.65594068 195.48693577 1006.31363188 196.234375 1004.97265625 C206.86191563 985.6939615 214.6601154 965.34239593 220 944 C220.19819336 943.22076172 220.39638672 942.44152344 220.60058594 941.63867188 C225.1002369 923.68559568 226.33790418 906.02465364 226.26074219 887.55029297 C226.2500119 884.50337842 226.2607115 881.45705321 226.2734375 878.41015625 C226.28817222 861.37690778 224.99041372 845.2449755 220.8125 828.6875 C220.50280273 827.44331299 220.19310547 826.19912598 219.87402344 824.91723633 C211.5922863 792.33359321 197.69689763 762.25601405 178 735 C177.34257813 734.08105957 177.34257813 734.08105957 176.671875 733.14355469 C172.98454226 727.95572372 172.98454226 727.95572372 169 723 C168.34 723 167.68 723 167 723 C166.73316406 722.41734375 166.46632813 721.8346875 166.19140625 721.234375 C164.97613248 718.95523863 163.62930828 717.19537168 161.9375 715.25 C161.41027344 714.63640625 160.88304687 714.0228125 160.33984375 713.390625 C159.89769531 712.93171875 159.45554687 712.4728125 159 712 C156.52661858 712 153.52101441 715.49294111 151.5625 717.0625 Z M-217.5625 715.3125 C-220.16285298 717.81671947 -220.16285298 717.81671947 -221 721 C-221.66 721 -222.32 721 -223 721 C-224.39674144 722.42975351 -224.39674144 722.42975351 -225.79296875 724.33203125 C-226.33727539 725.04246582 -226.88158203 725.75290039 -227.44238281 726.48486328 C-228.01827148 727.2529834 -228.59416016 728.02110352 -229.1875 728.8125 C-229.77756836 729.59351074 -230.36763672 730.37452148 -230.97558594 731.17919922 C-235.29532487 736.94639617 -239.29697626 742.81673084 -243 749 C-243.71111113 750.14783529 -244.42342869 751.29492373 -245.13671875 752.44140625 C-258.72386768 774.44338971 -268.60231124 797.94374921 -275 823 C-275.30550781 824.17820312 -275.61101562 825.35640625 -275.92578125 826.5703125 C-277.43056503 832.72835072 -278.56253636 838.94078011 -279.625 845.1875 C-279.81002075 846.27454224 -279.81002075 846.27454224 -279.9987793 847.38354492 C-280.35859296 849.58600294 -280.68745355 851.79035238 -281 854 C-281.14900757 855.02492554 -281.14900757 855.02492554 -281.30102539 856.07055664 C-282.32946731 864.45157706 -282.1860609 872.90760047 -282.18530273 881.33764648 C-282.18747533 884.03190249 -282.20564146 886.72573872 -282.22460938 889.41992188 C-282.32915057 921.61473262 -275.23066389 952.31029682 -263 982 C-262.67773438 982.78890625 -262.35546875 983.5778125 -262.0234375 984.390625 C-257.28818592 995.86302315 -251.55464624 1006.47190507 -245 1017 C-244.60635254 1017.6398584 -244.21270508 1018.2797168 -243.80712891 1018.93896484 C-239.01469355 1026.71031844 -233.84644226 1033.9750259 -228 1041 C-226.60099039 1042.74746182 -225.2051432 1044.49746024 -223.8125 1046.25 C-220.91724729 1049.87049353 -217.986024 1053.4540965 -215 1057 C-210.81235693 1054.31037559 -206.6941074 1051.55073554 -202.73046875 1048.5390625 C-184.32847935 1034.57884469 -163.62782347 1024.25443127 -143 1014 C-143.62380885 1006.32287234 -144.79364048 998.77200005 -146.04110718 991.17443848 C-149.91250043 967.41177643 -152.2178323 943.68371541 -153.35424805 919.63964844 C-153.3909108 918.88758621 -153.42757355 918.13552399 -153.46534729 917.360672 C-153.5643332 915.30761003 -153.65759489 913.25427438 -153.75048828 911.20092773 C-153.87174345 907.98219407 -153.87174345 907.98219407 -155 905 C-196.58 904.505 -196.58 904.505 -239 904 C-239 891.13 -239 878.26 -239 865 C-211.28 864.67 -183.56 864.34 -155 864 C-153.83171227 860.49513681 -153.73751727 857.51235665 -153.5703125 853.81640625 C-153.49878782 852.33144152 -153.4268291 850.84649765 -153.35449219 849.36157227 C-153.31755249 848.5798465 -153.28061279 847.79812073 -153.24255371 846.9927063 C-152.02320269 821.78487143 -149.22103055 797.04489227 -144.98144531 772.17016602 C-144.85104355 771.39890381 -144.72064178 770.6276416 -144.58628845 769.83300781 C-144.34072642 768.38565899 -144.09157815 766.93891215 -143.83815002 765.49291992 C-143.23745482 761.95458353 -142.86627462 758.58981249 -143 755 C-143.95777344 754.52691406 -144.91554688 754.05382812 -145.90234375 753.56640625 C-167.74255183 742.73778823 -188.61458494 731.25130038 -208.1003418 716.50512695 C-212.81662219 712.47319109 -212.81662219 712.47319109 -217.5625 715.3125 Z M-103 769 C-104.73617309 778.28421637 -106.28327161 787.57862858 -107.5625 796.9375 C-107.67698486 797.76846191 -107.79146973 798.59942383 -107.90942383 799.45556641 C-108.29066284 802.30175476 -108.64941811 805.14986279 -109 808 C-109.11799454 808.95400192 -109.11799454 808.95400192 -109.2383728 809.92727661 C-110.58703428 820.97252467 -111.48876916 831.99917383 -112.06030273 843.11108398 C-112.19052341 845.62076892 -112.33219705 848.12965201 -112.47460938 850.63867188 C-112.56056357 852.23954762 -112.64587638 853.84045797 -112.73046875 855.44140625 C-112.77310349 856.18910782 -112.81573822 856.93680939 -112.85966492 857.70716858 C-112.94659399 859.46992363 -112.97902103 861.23522751 -113 863 C-111.91143198 864.31348588 -111.91143198 864.31348588 -109.25323391 864.12304783 C-108.01526593 864.12212604 -106.77729795 864.12120424 -105.5018158 864.12025452 C-104.47147896 864.12153615 -104.47147896 864.12153615 -103.42032725 864.12284368 C-101.10172545 864.12450045 -98.78319483 864.11897393 -96.46459961 864.11352539 C-94.80930076 864.11324354 -93.15400178 864.11340122 -91.498703 864.1139679 C-86.99063067 864.11425594 -82.48258471 864.10835819 -77.97451854 864.10139394 C-73.26862263 864.09516145 -68.56272618 864.09455668 -63.85682678 864.09336853 C-54.93911366 864.0902549 -46.02141273 864.08204109 -37.10370499 864.07201904 C-26.95393703 864.06085888 -16.8041685 864.0553477 -6.65439594 864.05032361 C14.23040953 864.03985851 35.115204 864.02225846 56 864 C56.01518614 860.84562711 56.02420794 857.69126384 56.03222656 854.53686523 C56.03654694 853.65493248 56.04086731 852.77299973 56.0453186 851.86434174 C56.0611101 843.5521503 55.51498682 835.33609557 54.75 827.0625 C54.68475128 826.32684814 54.61950256 825.59119629 54.55227661 824.83325195 C52.8877065 806.11217097 50.50039001 787.47132443 47 769 C41.83165879 769.44554666 36.92950689 770.20338493 31.875 771.375 C-9.19041347 780.45121273 -54.53683852 779.94159018 -95.30078125 769.55078125 C-97.94884682 769.01043791 -100.30627046 768.89696117 -103 769 Z M-485 866 C-485.86625 866.5775 -486.7325 867.155 -487.625 867.75 C-492.2270457 872.10983277 -495.07337962 877.67046805 -495.375 884.0625 C-495.29241242 890.39077359 -492.70831715 895.96555042 -488.5078125 900.671875 C-483.06386819 905.46705911 -477.81038082 906.47461323 -470.77734375 906.3046875 C-463.45127672 905.50098394 -458.94659769 901.60218531 -454.41015625 896.01171875 C-451.07921116 891.25981647 -450.42010323 886.70231821 -451 881 C-452.9892363 874.29377224 -456.47644606 869.28257926 -462 865 C-468.97020545 861.35648351 -478.4770062 861.65133746 -485 866 Z M399.546875 871.04296875 C396.29618085 875.15558937 395.21565624 879.3055581 394.5625 884.4375 C395.43765345 891.56374952 398.32642813 897.48693147 404 902 C409.47697557 905.65131705 414.45078176 907.06926012 421 906 C428.27836524 904.07195623 432.20209773 900.38562552 436 894 C438.50333748 889.56226537 438.76259363 884.97651306 438 880 C435.74154034 873.47663799 432.74239277 868.82826185 427 865 C416.57160256 860.08945678 407.19283626 863.00794309 399.546875 871.04296875 Z M-112 905 C-111.88583206 909.28279875 -111.76598709 913.5653945 -111.64141846 917.84790039 C-111.59999153 919.29740342 -111.55997825 920.7469477 -111.52154541 922.1965332 C-110.83216818 948.07400305 -107.26141737 973.50230865 -103 999 C-98.80068607 1000.1449562 -95.76916001 999.77151576 -91.5390625 998.85546875 C-89.64353638 998.45932373 -89.64353638 998.45932373 -87.7097168 998.05517578 C-87.04418793 997.91307678 -86.37865906 997.77097778 -85.69296265 997.62457275 C-46.46796538 989.33420174 -6.44620105 989.91608864 32.74682617 997.96728516 C34.01888916 998.22815918 35.29095215 998.4890332 36.6015625 998.7578125 C37.73932129 998.9964502 38.87708008 999.23508789 40.04931641 999.48095703 C43.15725452 1000.11549737 43.15725452 1000.11549737 47 1000 C51.93068679 978.37221475 54.15229488 956.33474034 55.75 934.25 C55.81493652 933.35782776 55.87987305 932.46565552 55.94677734 931.54644775 C56.13133191 928.97401098 56.3095715 926.40124145 56.484375 923.828125 C56.53728699 923.06976349 56.59019897 922.31140198 56.64471436 921.53005981 C57.15976935 913.76796639 57.15976935 913.76796639 57 906 C55.91143198 904.68651412 55.91143198 904.68651412 53.25323391 904.87695217 C52.01526593 904.87787396 50.77729795 904.87879576 49.5018158 904.87974548 C48.47147896 904.87846385 48.47147896 904.87846385 47.42032725 904.87715632 C45.10172545 904.87549955 42.78319483 904.88102607 40.46459961 904.88647461 C38.80930076 904.88675646 37.15400178 904.88659878 35.498703 904.8860321 C30.99063067 904.88574406 26.48258471 904.89164181 21.97451854 904.89860606 C17.26862263 904.90483855 12.56272618 904.90544332 7.85682678 904.90663147 C-1.06088634 904.9097451 -9.97858727 904.91795891 -18.89629501 904.92798096 C-29.04606297 904.93914112 -39.1958315 904.9446523 -49.34560406 904.94967639 C-70.23040953 904.96014149 -91.115204 904.97774154 -112 905 Z M-76.5 1036.4375 C-77.56959961 1036.64270264 -78.63919922 1036.84790527 -79.74121094 1037.05932617 C-80.74442383 1037.26533447 -81.74763672 1037.47134277 -82.78125 1037.68359375 C-83.66876953 1037.86462646 -84.55628906 1038.04565918 -85.47070312 1038.23217773 C-88.30987404 1039.09406891 -90.52257904 1040.38427858 -93 1042 C-87.69209109 1060.89937263 -81.06356512 1078.89248931 -71.90527344 1096.27929688 C-71.07265188 1097.86190657 -70.25809463 1099.45398539 -69.4453125 1101.046875 C-65.89717771 1107.83627886 -61.63078579 1113.90790014 -57 1120 C-56.46761719 1120.76441406 -55.93523438 1121.52882813 -55.38671875 1122.31640625 C-54.92910156 1122.87199219 -54.47148438 1123.42757813 -54 1124 C-53.34 1124 -52.68 1124 -52 1124 C-51.77570312 1124.57621094 -51.55140625 1125.15242188 -51.3203125 1125.74609375 C-47.36289976 1132.50179538 -38.37185796 1137.03417121 -31 1139 C-24.66637512 1139.82102545 -19.44939329 1138.15043049 -14 1135 C-9.71019654 1131.59113833 -5.85008821 1127.89390145 -2 1124 C-1.35160156 1123.36191406 -0.70320312 1122.72382812 -0.03515625 1122.06640625 C18.78959124 1102.1786142 34.03475754 1067.03603422 37 1040 C-0.79693703 1031.31608414 -38.28899188 1029.05345111 -76.5 1036.4375 Z M-143.4375 1059.75 C-144.83875122 1060.48512817 -144.83875122 1060.48512817 -146.26831055 1061.23510742 C-158.77580242 1067.8964198 -170.76943817 1075.35074019 -182 1084 C-180.1830425 1088.03299108 -177.70101915 1090.02753565 -174.125 1092.5 C-173.51132568 1092.92869385 -172.89765137 1093.3573877 -172.26538086 1093.79907227 C-153.91882471 1106.40936083 -134.22620651 1117.19244655 -113.25 1124.75 C-112.55302002 1125.00249512 -111.85604004 1125.25499023 -111.13793945 1125.51513672 C-107.11544391 1126.88325966 -107.11544391 1126.88325966 -103 1126 C-103.47308594 1125.16082031 -103.94617188 1124.32164063 -104.43359375 1123.45703125 C-116.33729477 1101.96389895 -125.23300448 1078.59544489 -132 1055 C-136.06871388 1055 -139.90366933 1057.89504384 -143.4375 1059.75 Z M77 1055 C75.10603294 1060.12900395 73.24101429 1065.26482558 71.4921875 1070.4453125 C65.94181081 1086.80222963 59.46731564 1102.70197951 51.47485352 1118.02832031 C49.94411798 1120.97968931 48.59071432 1123.71004942 48 1127 C53.50748473 1126.36828527 58.22472453 1124.5170603 63.3125 1122.4375 C64.19043213 1122.08107422 65.06836426 1121.72464844 65.97290039 1121.35742188 C79.2933281 1115.88844136 91.94146989 1109.92349989 104 1102 C104.84804199 1101.44908691 105.69608398 1100.89817383 106.56982422 1100.33056641 C109.44828857 1098.45839851 112.31913063 1096.57509393 115.1875 1094.6875 C116.12174805 1094.07632324 117.05599609 1093.46514648 118.01855469 1092.83544922 C118.89286133 1092.25424316 119.76716797 1091.67303711 120.66796875 1091.07421875 C121.45453857 1090.55432373 122.2411084 1090.03442871 123.05151367 1089.4987793 C125.24905013 1087.97451448 125.24905013 1087.97451448 127 1085 C111.98944596 1072.12854212 95.08984098 1062.79734525 77 1055 Z M-576 1083 C-579.90223962 1089.47936274 -579.89353268 1095.62414059 -579 1103 C-576.92177332 1108.7106827 -572.91070553 1112.59257168 -568 1116 C-562.33681989 1118.53035707 -556.97111048 1118.81067984 -551.0625 1116.9375 C-545.56577776 1114.63828739 -540.8206795 1111.13298746 -537.796875 1105.9296875 C-535.46325728 1100.01078437 -535.60295462 1094.15274097 -537 1088 C-540.00539174 1081.98921652 -544.54451427 1078.29471066 -550.4375 1075.1875 C-560.15922939 1071.94692354 -569.42019169 1075.35409617 -576 1083 Z M483.1171875 1084.32421875 C479.58854617 1089.61718075 479.256115 1094.76281039 480 1101 C481.89258985 1107.68395656 486.42095287 1112.08925046 492 1116 C497.6944777 1118.67291811 502.77002878 1118.79371857 508.6875 1116.6875 C511.41909849 1115.29593096 513.749588 1114.07037904 516 1112 C516 1111.34 516 1110.68 516 1110 C516.66 1110 517.32 1110 518 1110 C522.08341046 1103.364458 523.07851091 1097.7569823 522 1090 C520.93730867 1087.01347092 519.67374196 1084.71983069 518 1082 C517.34 1082 516.68 1082 516 1082 C515.505 1080.515 515.505 1080.515 515 1079 C503.47683837 1071.16336709 491.59763567 1073.13673486 483.1171875 1084.32421875 Z " fill="#49F525" transform="translate(713,36)"/>
<path d="M0 0 C6.6 0 13.2 0 20 0 C26.93 13.53 33.86 27.06 41 41 C41.66 27.8 42.32 14.6 43 1 C48.28 1 53.56 1 59 1 C60 2 60 2 60.03759766 5.43286133 C60.00177412 6.98271766 59.96011704 8.53244519 59.9140625 10.08203125 C59.89314041 10.91595398 59.87221832 11.74987671 59.85066223 12.60906982 C59.78056315 15.34370811 59.70294135 18.07807489 59.625 20.8125 C59.5753023 22.68024921 59.52590543 24.54800644 59.47680664 26.41577148 C59.07862263 41.28058261 58.58245289 56.14125503 58 71 C52.06 71 46.12 71 40 71 C39.39414062 69.77667969 38.78828125 68.55335937 38.1640625 67.29296875 C32.55227407 55.99711287 26.79524497 44.78990826 20.87280273 33.65380859 C20.23401803 32.44342325 19.61205859 31.22411718 19 30 C18.01 30 17.02 30 16 30 C15.97494385 30.89195068 15.9498877 31.78390137 15.92407227 32.70288086 C15.82821882 36.05210025 15.72903508 39.40118824 15.62768555 42.75024414 C15.58470988 44.19226302 15.54301352 45.63432067 15.50268555 47.07641602 C15.28697167 54.75955833 15.01432502 62.37125304 14 70 C8.39 70 2.78 70 -3 70 C-2.76117852 61.46360944 -2.51862556 52.92734991 -2.26950932 44.39125443 C-2.15398271 40.42756495 -2.04008943 36.4638426 -1.92993164 32.5 C-1.82355521 28.6743887 -1.71288474 24.8489235 -1.59924126 21.02352142 C-1.5566469 19.56434254 -1.51559763 18.10511771 -1.4761219 16.64585114 C-1.42054922 14.60132258 -1.35947574 12.55702666 -1.29711914 10.51269531 C-1.26380997 9.34909485 -1.23050079 8.18549438 -1.19618225 6.9866333 C-1 4 -1 4 0 0 Z " fill="#49F626" transform="translate(643,1249)"/>
<path d="M0 0 C2.10834372 0.61526107 4.22247153 1.20670714 6.33789062 1.79711914 C7.6924672 2.18828056 9.04664961 2.58081009 10.40039062 2.97485352 C11.61452637 3.32459229 12.82866211 3.67433105 14.07958984 4.03466797 C17.35820896 5.35442301 18.95267218 6.63606945 21.22070312 9.29907227 C21.75695312 9.89204102 22.29320312 10.48500977 22.84570312 11.09594727 C25.27360697 14.54467432 26.32194549 17.09950365 25.96289062 21.35375977 C25.13398623 24.76645622 24.16144717 28.07819334 23.09814453 31.4230957 C22.22928018 34.27095937 21.43773615 37.13426392 20.66571045 40.00973511 C19.91138972 42.8179243 19.13996891 45.62128302 18.36651611 48.42425537 C17.97919401 49.8351421 17.59646216 51.24729739 17.21844482 52.66070557 C16.67565228 54.67576729 16.1093267 56.68282125 15.53710938 58.68969727 C15.21170166 59.86564453 14.88629395 61.0415918 14.55102539 62.25317383 C13.0087018 65.78446931 11.37762484 67.16161229 8.22070312 69.29907227 C7.36025391 69.94295898 7.36025391 69.94295898 6.48242188 70.59985352 C5.96292969 70.9337207 5.4434375 71.26758789 4.90820312 71.61157227 C4.39644531 71.95833008 3.8846875 72.30508789 3.35742188 72.66235352 C-4.01099791 74.85806179 -13.62865508 70.64337412 -20.7800293 68.65307617 C-22.96778914 68.04879819 -25.16113824 67.46880946 -27.35546875 66.88891602 C-28.76147663 66.50107248 -30.16709077 66.11179814 -31.57226562 65.72094727 C-32.83578857 65.37644531 -34.09931152 65.03194336 -35.40112305 64.67700195 C-40.41967039 62.62997722 -43.67399644 59.20609151 -46.15429688 54.42407227 C-46.49203125 53.80790039 -46.82976563 53.19172852 -47.17773438 52.55688477 C-48.72604635 46.74568789 -46.00876306 39.93898637 -44.45117188 34.26000977 C-44.2202887 33.41612701 -43.98940552 32.57224426 -43.75152588 31.70278931 C-43.26324099 29.92882161 -42.77228953 28.15558594 -42.27880859 26.38305664 C-41.53073381 23.67926581 -40.80545052 20.96996567 -40.08007812 18.26000977 C-39.60101094 16.53045427 -39.1205877 14.80127369 -38.63867188 13.07250977 C-38.32116974 11.86454239 -38.32116974 11.86454239 -37.99725342 10.63217163 C-36.13357005 4.11222569 -33.04210069 0.98508295 -27.59179688 -3.07592773 C-19.40947065 -7.38475788 -8.29373816 -2.433311 0 0 Z M-17.81713867 11.84814453 C-20.22740613 14.85880461 -21.18523475 17.8560456 -22.17382812 21.51391602 C-22.46854256 22.55304893 -22.46854256 22.55304893 -22.76921082 23.61317444 C-23.17968726 25.07299211 -23.58356618 26.5346792 -23.98120117 27.99804688 C-24.59025203 30.23090867 -25.22509372 32.4552448 -25.86328125 34.67993164 C-26.26002608 36.10332516 -26.65525979 37.52714092 -27.04882812 38.95141602 C-27.33304375 39.94382545 -27.33304375 39.94382545 -27.6230011 40.95628357 C-28.62866449 44.72636386 -29.06058494 47.56898712 -27.77929688 51.29907227 C-23.94520613 54.40563156 -19.41925504 55.44350062 -14.71679688 56.61157227 C-14.00974609 56.80557617 -13.30269531 56.99958008 -12.57421875 57.19946289 C-9.83402126 57.89158789 -7.50135688 58.46830641 -4.71264648 57.81469727 C-1.69082473 55.44577828 -1.11535498 52.18604153 -0.13085938 48.62329102 C0.09018463 47.86111771 0.31122864 47.0989444 0.53897095 46.31367493 C1.00204364 44.70108254 1.45712618 43.08617736 1.90478516 41.46923828 C2.59209696 38.99953026 3.31258113 36.54128781 4.03710938 34.08227539 C4.48315311 32.51319052 4.92722933 30.94354474 5.36914062 29.37329102 C5.58565277 28.63978928 5.80216492 27.90628754 6.02523804 27.15055847 C6.89407667 23.93429645 7.30832899 21.66212425 6.52001953 18.39599609 C3.34490371 13.27178156 -4.85946078 12.33869243 -10.32617188 10.84985352 C-13.56616772 10.12240222 -15.10636562 9.78754132 -17.81713867 11.84814453 Z " fill="#49F525" transform="translate(588.779296875,1235.700927734375)"/>
<path d="M0 0 C7.21254471 2.61782192 11.28298525 9.53284684 15.44824219 15.60351562 C17.34851761 18.32450393 19.39334557 20.90573605 21.47241211 23.49121094 C22.86103732 25.22289148 24.21559239 26.97703266 25.56640625 28.73828125 C27.82467087 31.69219367 27.82467087 31.69219367 30.01171875 33.92578125 C33.90323303 38.1482979 34.33358321 41.19362434 34.1484375 46.95703125 C33.8370018 51.05083091 33.50041455 53.11732765 30.8671875 56.30078125 C26.6667336 59.86890876 22.4255581 63.36836416 18.11401367 66.80151367 C15.03339995 69.25964711 12.03166563 71.70351832 9.1484375 74.39453125 C4.50517334 78.67122193 1.56057223 80.24596233 -4.8515625 80.33203125 C-6.91918241 80.21366568 -8.98459291 80.03071546 -11.0390625 79.76953125 C-11.88984375 79.71667969 -12.740625 79.66382813 -13.6171875 79.609375 C-17.2043695 78.36543286 -18.83251964 75.73947846 -20.9765625 72.76953125 C-21.9338624 71.4956374 -22.89361823 70.22358642 -23.85546875 68.953125 C-24.36480957 68.27620605 -24.87415039 67.59928711 -25.39892578 66.90185547 C-28.86014554 62.40196065 -32.53839171 58.07526192 -36.17944336 53.72070312 C-37.81639623 51.75023142 -39.43057279 49.76326668 -41.0390625 47.76953125 C-41.54066895 47.17269531 -42.04227539 46.57585937 -42.55908203 45.9609375 C-45.85420175 41.80112451 -46.65603697 39.1042479 -46.1640625 33.64453125 C-46.08414063 32.46632813 -46.00421875 31.288125 -45.921875 30.07421875 C-44.80914357 25.90886128 -43.31399202 24.54638939 -40.0390625 21.76953125 C-39.47316406 21.28790527 -38.90726563 20.8062793 -38.32421875 20.31005859 C-34.9879951 17.50611746 -31.57393573 14.8022254 -28.16015625 12.09375 C-25.64255683 10.09476799 -23.22716625 8.0545612 -20.88671875 5.8515625 C-14.40576459 0.11738495 -8.46304596 -2.07503972 0 0 Z M-17.0390625 20.51953125 C-17.8640625 21.215625 -18.6890625 21.91171875 -19.5390625 22.62890625 C-20.3640625 23.3353125 -21.1890625 24.04171875 -22.0390625 24.76953125 C-22.9465625 25.3934375 -23.8540625 26.01734375 -24.7890625 26.66015625 C-27.2053803 28.63996893 -27.2053803 28.63996893 -28.21484375 31.546875 C-27.94983361 36.40539429 -25.37702509 38.7930964 -22.2265625 42.33203125 C-21.02709874 43.73826519 -19.82920337 45.14583829 -18.6328125 46.5546875 C-18.02953125 47.25609863 -17.42625 47.95750977 -16.8046875 48.68017578 C-14.17165899 51.79597473 -11.69238999 55.02084345 -9.2265625 58.26953125 C-8.80076904 58.82713135 -8.37497559 59.38473145 -7.9362793 59.95922852 C-6.96838053 61.22768426 -6.00334905 62.49832731 -5.0390625 63.76953125 C1.36754621 63.45580557 4.68104059 61.29179474 9.4609375 57.14453125 C10.10546875 56.63535156 10.75 56.12617187 11.4140625 55.6015625 C13.19978085 54.07912314 14.63685575 52.70728818 15.9609375 50.76953125 C16.26024175 45.77558438 14.80904154 42.95158052 11.52001953 39.2409668 C11.04677246 38.73476807 10.57352539 38.22856934 10.0859375 37.70703125 C9.08299745 36.58987207 8.08309595 35.46997902 7.0859375 34.34765625 C6.3125 33.48043945 6.3125 33.48043945 5.5234375 32.59570312 C3.91999877 30.72168411 2.43345844 28.79462189 0.9609375 26.81640625 C0.47866699 26.17195557 -0.00360352 25.52750488 -0.50048828 24.86352539 C-1.42729397 23.61353824 -2.34281888 22.35508999 -3.24560547 21.08764648 C-5.16745091 18.52749727 -6.37668433 16.93357818 -9.546875 16.1484375 C-12.77522269 16.95299437 -14.51667159 18.35973403 -17.0390625 20.51953125 Z " fill="#49F625" transform="translate(932.0390625,1159.23046875)"/>
<path d="M0 0 C4.17708809 1.26170109 7.67196937 2.82311609 11.375 5.125 C12.68597656 5.93324219 12.68597656 5.93324219 14.0234375 6.7578125 C15.00183594 7.37269531 15.00183594 7.37269531 16 8 C14.58975307 11.77295756 12.85824415 15.16503633 10.83984375 18.6484375 C10.214729 19.72963867 9.58961426 20.81083984 8.94555664 21.92480469 C7.9515686 23.63265137 7.9515686 23.63265137 6.9375 25.375 C6.25806723 26.55092486 5.5789506 27.72703244 4.90014648 28.90332031 C1.99867904 33.92010158 -0.91978808 38.92137771 -3.9921875 43.8359375 C-4.62435181 44.85228271 -4.62435181 44.85228271 -5.26928711 45.88916016 C-6.35347103 47.61615072 -7.4553159 49.33201956 -8.55859375 51.046875 C-10.15039683 54.3081301 -10.30562654 56.41827143 -10 60 C-8.96552734 60.37898438 -8.96552734 60.37898438 -7.91015625 60.765625 C-3.40247723 62.67760697 0.72369384 65.2573832 4.94140625 67.734375 C7.79078107 69.29044052 7.79078107 69.29044052 9.98583984 68.4050293 C12.63711496 66.55556405 13.70442665 64.60231923 15.28515625 61.78515625 C15.89351318 60.71442871 16.50187012 59.64370117 17.12866211 58.54052734 C17.76682861 57.39277832 18.40499512 56.2450293 19.0625 55.0625 C19.72619149 53.88690892 20.39099433 52.71194459 21.05688477 51.53759766 C22.39961617 49.1674321 23.73731312 46.79453705 25.07128906 44.41943359 C27.81928317 39.54748354 30.6253764 34.71011886 33.4375 29.875 C34.33229382 28.33088129 35.22685407 26.78662719 36.12109375 25.2421875 C37.05115234 23.63730469 37.05115234 23.63730469 38 22 C42.17708809 23.26170109 45.67196937 24.82311609 49.375 27.125 C50.24898437 27.66382813 51.12296875 28.20265625 52.0234375 28.7578125 C52.67570313 29.16773438 53.32796875 29.57765625 54 30 C52.69694504 34.33028145 51.02304744 37.95492373 48.69140625 41.82421875 C48.03245361 42.92693115 47.37350098 44.02964355 46.69458008 45.16577148 C45.98470079 46.34017345 45.27399043 47.51407341 44.5625 48.6875 C43.09636402 51.10781854 41.63233638 53.52937755 40.171875 55.953125 C39.80979446 56.55329941 39.44771393 57.15347382 39.07466125 57.77183533 C36.89960663 61.40660002 34.87340154 65.08449485 32.953125 68.859375 C25.8531332 82.66241677 25.8531332 82.66241677 18.125 85.25 C11.74196031 86.53601783 7.42091927 85.47547614 1.83203125 82.26953125 C0.36733398 81.43518555 0.36733398 81.43518555 -1.12695312 80.58398438 C-2.13693359 79.99939453 -3.14691406 79.41480469 -4.1875 78.8125 C-5.17814453 78.24724609 -6.16878906 77.68199219 -7.18945312 77.09960938 C-9.16726388 75.96739377 -11.1400817 74.8264091 -13.10766602 73.67651367 C-15.02060122 72.56769912 -16.94829174 71.48392232 -18.89038086 70.42700195 C-25.57772856 66.69521504 -25.57772856 66.69521504 -27.66796875 63.25390625 C-27.83941406 62.36574219 -28.01085937 61.47757813 -28.1875 60.5625 C-28.38730469 59.67691406 -28.58710938 58.79132813 -28.79296875 57.87890625 C-29.43362322 48.97018278 -25.74583045 43.44178525 -21.25 35.9375 C-20.23461095 34.21159635 -19.21922232 32.48569246 -18.20387268 30.75976562 C-16.81905163 28.41249098 -15.42365936 26.07157274 -14.02874756 23.73028564 C-12.38138413 20.95952885 -10.74778207 18.18070185 -9.11328125 15.40234375 C-6.08681001 10.26149407 -3.04848999 5.12782037 0 0 Z " fill="#4CF624" transform="translate(480,1187)"/>
<path d="M0 0 C2.38339879 0.87409004 3.5023891 1.85213939 5.25219727 3.67700195 C5.83001953 4.26964844 6.4078418 4.86229492 7.00317383 5.47290039 C7.60613281 6.10486328 8.2090918 6.73682617 8.83032227 7.38793945 C10.08884641 8.67884971 11.34924634 9.96793406 12.61157227 11.25512695 C13.21356445 11.8696875 13.81555664 12.48424805 14.43579102 13.11743164 C16.89169281 15.57479181 19.50411665 17.81411457 22.15454102 20.0559082 C25.48201101 23.00541 28.54655458 26.22179906 31.67016602 29.3840332 C34.67929513 32.35414605 37.8218268 35.07113885 41.08032227 37.76293945 C40.14441723 38.86845835 39.20652369 39.97229399 38.26782227 41.07543945 C37.74575195 41.69032227 37.22368164 42.30520508 36.68579102 42.9387207 C36.15598633 43.54071289 35.62618164 44.14270508 35.08032227 44.76293945 C34.60208008 45.35461914 34.12383789 45.94629883 33.63110352 46.5559082 C32.08032227 47.76293945 32.08032227 47.76293945 30.22094727 47.7668457 C27.12479034 46.31481591 25.19228852 44.15564122 22.83032227 41.70043945 C21.49227539 40.32178711 21.49227539 40.32178711 20.12719727 38.9152832 C19.45172852 38.20500977 18.77625977 37.49473633 18.08032227 36.76293945 C13.99904068 38.37986724 11.27428294 41.30571351 8.26782227 44.38793945 C7.46671021 45.19871948 7.46671021 45.19871948 6.64941406 46.02587891 C3.22371405 49.51814786 -0.04202408 53.1110983 -3.21264648 56.8371582 C-5.89972251 59.86857349 -8.81395207 62.66552563 -11.69702148 65.5090332 C-14.93218327 68.78968057 -17.94194792 72.24902677 -20.91967773 75.76293945 C-24.60037661 74.22650093 -26.90742977 71.98143 -29.66967773 69.13793945 C-30.46889648 68.32067383 -31.26811523 67.5034082 -32.09155273 66.66137695 C-32.69483398 66.03489258 -33.29811523 65.4084082 -33.91967773 64.76293945 C-30.49680497 57.27230486 -23.88552438 51.68195034 -18.10717773 45.98168945 C-15.52248558 43.36007312 -13.13863102 40.60648886 -10.75170898 37.8059082 C-7.94792257 34.67929777 -4.89416184 31.81636941 -1.83764648 28.9387207 C0.49429242 26.5384911 0.49429242 26.5384911 2.08032227 21.76293945 C-1.87967773 18.13293945 -5.83967773 14.50293945 -9.91967773 10.76293945 C-8.92217799 6.77294047 -8.35570958 5.74605535 -5.60717773 2.95043945 C-5.01291992 2.32524414 -4.41866211 1.70004883 -3.80639648 1.0559082 C-1.91967773 -0.23706055 -1.91967773 -0.23706055 0 0 Z " fill="#4AF624" transform="translate(422.919677734375,1135.237060546875)"/>
<path d="M0 0 C1.16796875 1.7421875 1.16796875 1.7421875 2.1875 3.875 C2.53167969 4.57367187 2.87585938 5.27234375 3.23046875 5.9921875 C4 8 4 8 4 11 C2.02 11.66 0.04 12.32 -2 13 C-1.42443359 14.14065918 -0.84886719 15.28131836 -0.25585938 16.45654297 C1.87268189 20.67750363 3.99597808 24.90108408 6.11767578 29.12548828 C7.03778854 30.95563839 7.9593341 32.78506886 8.88232422 34.61376953 C10.20655035 37.23804151 11.5256508 39.86483392 12.84375 42.4921875 C13.46715271 43.72350906 13.46715271 43.72350906 14.10314941 44.97970581 C14.4835437 45.74034332 14.86393799 46.50098083 15.25585938 47.28466797 C15.59339233 47.95529266 15.93092529 48.62591736 16.27868652 49.31686401 C17 51 17 51 17 53 C17.928125 52.484375 18.85625 51.96875 19.8125 51.4375 C23 50 23 50 26 51 C27.16796875 52.7421875 27.16796875 52.7421875 28.1875 54.875 C28.53167969 55.57367187 28.87585938 56.27234375 29.23046875 56.9921875 C30 59 30 59 30 62 C26.19411028 63.9990225 22.38548744 65.99270521 18.57421875 67.98144531 C17.27755146 68.65901244 15.98164801 69.33804339 14.68652344 70.01855469 C12.82685118 70.995381 10.9645126 71.96694285 9.1015625 72.9375 C7.98088379 73.52402344 6.86020508 74.11054687 5.70556641 74.71484375 C3 76 3 76 1 76 C0.13372601 74.40233897 -0.71766465 72.79660056 -1.5625 71.1875 C-2.03816406 70.29417969 -2.51382813 69.40085937 -3.00390625 68.48046875 C-4 66 -4 66 -3 63 C-0.9375 61.8125 -0.9375 61.8125 1 61 C-0.42435825 56.28831336 -2.39792456 52.03769327 -4.6953125 47.703125 C-5.22377274 46.69085846 -5.22377274 46.69085846 -5.76290894 45.65814209 C-6.87942076 43.51987192 -8.0015381 41.3846258 -9.125 39.25 C-10.61144886 36.42429419 -12.09243459 33.59582087 -13.5703125 30.765625 C-13.91401886 30.11668274 -14.25772522 29.46774048 -14.61184692 28.7991333 C-17 24.2254221 -17 24.2254221 -17 22 C-17.94875 22.495 -18.8975 22.99 -19.875 23.5 C-23 25 -23 25 -25 25 C-25.86627399 23.40233897 -26.71766465 21.79660056 -27.5625 20.1875 C-28.03816406 19.29417969 -28.51382813 18.40085937 -29.00390625 17.48046875 C-30 15 -30 15 -29 12 C-26.54736328 10.45019531 -26.54736328 10.45019531 -23.3203125 8.828125 C-21.58587891 7.95607422 -21.58587891 7.95607422 -19.81640625 7.06640625 C-18.90785889 6.61998779 -18.90785889 6.61998779 -17.98095703 6.16455078 C-16.1318464 5.25337367 -14.29436183 4.32138009 -12.45703125 3.38671875 C-11.29816406 2.81050781 -10.13929688 2.23429687 -8.9453125 1.640625 C-7.87812988 1.10985352 -6.81094727 0.57908203 -5.71142578 0.03222656 C-3 -1 -3 -1 0 0 Z " fill="#49F525" transform="translate(860,1205)"/>
<path d="M0 0 C0.66 3.96 1.32 7.92 2 12 C-0.31 12.33 -2.62 12.66 -5 13 C-4.68192383 14.89274658 -4.68192383 14.89274658 -4.35742188 16.82373047 C-3.5730714 21.49370448 -2.79084876 26.1640328 -2.00927734 30.83447266 C-1.67034249 32.85800796 -1.33082625 34.88144596 -0.99072266 36.90478516 C-0.50271118 39.80866683 -0.01677361 42.71288896 0.46875 45.6171875 C0.62186646 46.52556366 0.77498291 47.43393982 0.93273926 48.36984253 C1.07288452 49.21056305 1.21302979 50.05128357 1.35742188 50.91748047 C1.48177612 51.65916473 1.60613037 52.400849 1.73425293 53.16500854 C2 55 2 55 2 57 C4.64 56.67 7.28 56.34 10 56 C10.66 60.29 11.32 64.58 12 69 C8.1053038 69.7390461 4.21017095 70.47226325 0.31176758 71.19116211 C-1.66250137 71.55785683 -3.63498121 71.9341419 -5.60742188 72.31054688 C-6.85458984 72.53935547 -8.10175781 72.76816406 -9.38671875 73.00390625 C-10.53358154 73.21861572 -11.68044434 73.4333252 -12.86206055 73.65454102 C-15.89777066 73.98874547 -18.07131181 73.78913875 -21 73 C-21.98248524 68.9472484 -22.08159574 65.16138263 -22 61 C-19.03 60.505 -19.03 60.505 -16 60 C-16.78943485 51.21628814 -18.45637285 42.59947795 -20.0625 33.9375 C-20.3472931 32.38872479 -20.63180071 30.83989705 -20.91601562 29.29101562 C-21.60738567 25.52672984 -22.30262028 21.76317685 -23 18 C-25.31 18 -27.62 18 -30 18 C-31.47110457 13.40279823 -32.04638918 9.86506545 -32 5 C-27.79346033 4.15743719 -23.58450944 3.32758687 -19.375 2.5 C-18.18519531 2.26152344 -16.99539063 2.02304688 -15.76953125 1.77734375 C-14.61582031 1.55175781 -13.46210937 1.32617188 -12.2734375 1.09375 C-10.68668213 0.77954102 -10.68668213 0.77954102 -9.06787109 0.45898438 C-6 0 -6 0 0 0 Z " fill="#4AF626" transform="translate(761,1242)"/>
<path d="M0 0 C0.67260351 1.76858691 1.33788395 3.53996016 2 5.3125 C2.37125 6.29863281 2.7425 7.28476563 3.125 8.30078125 C4 11 4 11 4 14 C2.274773 14.67679658 0.54461061 15.34102 -1.1875 16 C-2.15042969 16.37125 -3.11335937 16.7425 -4.10546875 17.125 C-7 18 -7 18 -12 18 C-13.32 13.71 -14.64 9.42 -16 5 C-3.375 0 -3.375 0 0 0 Z " fill="#49F525" transform="translate(821,1282)"/>
</svg>
